<?xml version="1.0" encoding="UTF-8" standalone="no"?>
<svg
   xmlns:dc="http://purl.org/dc/elements/1.1/"
   xmlns:cc="http://creativecommons.org/ns#"
   xmlns:rdf="http://www.w3.org/1999/02/22-rdf-syntax-ns#"
   xmlns:svg="http://www.w3.org/2000/svg"
   xmlns="http://www.w3.org/2000/svg"
   xmlns:sodipodi="http://sodipodi.sourceforge.net/DTD/sodipodi-0.dtd"
   xmlns:inkscape="http://www.inkscape.org/namespaces/inkscape"
   sodipodi:docname="Woman posing.svg"
   inkscape:version="1.0 (4035a4fb49, 2020-05-01)"
   id="svg179"
   version="1.1"
   viewBox="0 0 90.432915 141.72702"
   height="141.72702mm"
   width="90.432915mm">
  <title
     id="title291">Posing woman</title>
  <defs
     id="defs173" />
  <sodipodi:namedview
     inkscape:window-maximized="1"
     inkscape:window-y="-9"
     inkscape:window-x="-9"
     inkscape:window-height="1001"
     inkscape:window-width="1920"
     fit-margin-bottom="0"
     fit-margin-right="0"
     fit-margin-left="0"
     fit-margin-top="0"
     showgrid="false"
     inkscape:document-rotation="0"
     inkscape:current-layer="layer1"
     inkscape:document-units="mm"
     inkscape:cy="235.07455"
     inkscape:cx="609.99154"
     inkscape:zoom="0.39155028"
     inkscape:pageshadow="2"
     inkscape:pageopacity="0.0"
     borderopacity="1.0"
     bordercolor="#666666"
     pagecolor="#ffffff"
     id="base" />
  <metadata
     id="metadata176">
    <rdf:RDF>
      <cc:Work
         rdf:about="">
        <dc:format>image/svg+xml</dc:format>
        <dc:type
           rdf:resource="http://purl.org/dc/dcmitype/StillImage" />
        <dc:title>Posing woman</dc:title>
        <cc:license
           rdf:resource="http://creativecommons.org/publicdomain/zero/1.0/" />
      </cc:Work>
      <cc:License
         rdf:about="http://creativecommons.org/publicdomain/zero/1.0/">
        <cc:permits
           rdf:resource="http://creativecommons.org/ns#Reproduction" />
        <cc:permits
           rdf:resource="http://creativecommons.org/ns#Distribution" />
        <cc:permits
           rdf:resource="http://creativecommons.org/ns#DerivativeWorks" />
      </cc:License>
    </rdf:RDF>
  </metadata>
  <g
     transform="translate(-116.32727,-59.640114)"
     id="layer1"
     inkscape:groupmode="layer"
     inkscape:label="Lager 1">
    <path
       transform="scale(0.26458333)"
       d="m 589.56445,225.41211 c -0.71056,0.007 -1.41919,0.076 -2.11914,0.20703 -2.17888,0.40866 -4.30255,1.41745 -6.35156,3.02148 -2.17886,1.70576 -4.4238,4.48803 -4.99023,6.1836 -0.56644,1.69557 -1.46105,3.73318 -1.98633,4.52734 -3.36159,5.08055 -1.63458,16.01423 3.81054,24.12891 4.43331,6.60701 5.37653,8.74919 4.98633,11.33008 -0.27288,1.80525 -0.88358,2.16737 -3.53125,2.0957 -2.99728,-0.0811 -3.06442,-0.01 -1.05273,1.07617 2.89916,1.5647 3.49358,1.36141 5.94336,-2.01172 1.8404,-2.53395 1.93804,-3.41641 0.76367,-6.95508 -0.73981,-2.22913 -2.19959,-5.45383 -3.24414,-7.16601 -1.04451,-1.71218 -2.32995,-5.83722 -2.85742,-9.16602 -1.76689,-11.15096 3.84134,-23.51768 11.19336,-24.68359 2.27591,-0.36091 4.72431,0.71753 10.51757,4.63672 l 7.55274,5.10937 12.07812,-1.27343 c 20.72739,-2.18206 30.24366,0.70905 41.06055,12.4707 3.81494,4.14811 5.81173,7.48188 8.25977,13.80078 1.77532,4.58257 3.11145,7.21361 2.9707,5.84375 -0.25247,-2.45972 -0.23925,-2.46592 0.97266,-0.44336 2.4362,4.06507 6.93543,18.03439 9.86914,30.64258 1.64666,7.07664 3.71798,13.96035 4.60156,15.29492 0.88354,1.33456 2.00605,2.36256 2.49414,2.28516 0.48786,-0.0774 0.50353,-0.58692 0.0332,-1.13086 -0.46828,-0.5439 -2.32226,-7.88052 -4.12109,-16.30469 -5.45197,-25.53203 -6.24517,-28.36399 -10.44336,-37.3125 -5.25906,-11.20987 -12.24377,-20.99771 -18.33399,-25.69141 -5.30226,-4.08639 -16.26573,-8.96843 -19.12109,-8.51562 -0.98256,0.15579 -1.84321,-0.0733 -1.91211,-0.50781 -0.15723,-0.99127 -1.51214,-0.89858 -18.32812,1.25976 -10.37609,1.3318 -14.34066,1.4675 -16.36524,0.55664 -1.46948,-0.66097 -2.63102,-0.93821 -2.58008,-0.61718 0.051,0.3211 -1.4139,-0.16601 -3.25586,-1.08204 -2.20285,-1.09555 -4.38005,-1.6314 -6.51367,-1.60937 z m 2.11328,10.48242 c -0.46949,0.0677 -1.4149,0.69732 -2.51757,1.84375 -1.05865,1.10053 -1.19893,1.68931 -0.37696,1.57813 0.72061,-0.0965 1.87108,-0.94856 2.55664,-1.89258 0.80119,-1.10228 0.80727,-1.59704 0.33789,-1.5293 z m -5.69335,6.27149 c -0.3636,-0.003 -0.57822,0.25407 -0.50977,0.68554 0.0911,0.57529 0.60919,0.97677 1.15234,0.89063 0.54323,-0.0861 0.95792,-0.35409 0.91993,-0.59375 -0.0382,-0.23951 -0.55789,-0.63923 -1.1543,-0.88867 -0.14929,-0.0624 -0.28714,-0.0926 -0.4082,-0.0937 z m 27.83593,2.73437 c -0.32443,0.0517 -0.67929,0.33114 -1.13476,0.84961 -1.35882,1.54678 -8.3573,1.71964 -9.63282,0.23828 -0.113,-0.13145 -0.28401,-0.16018 -0.49804,-0.0977 -0.64316,0.18755 -1.67816,1.19696 -2.73828,2.72852 -1.34907,1.94904 -3.05709,3.6408 -3.79493,3.75781 -0.73783,0.11702 -3.16338,1.25963 -5.39062,2.54102 l -4.05078,2.33008 2.27148,11.4375 c 2.15362,10.84902 2.07179,14.87448 -0.30859,15.25195 -0.37115,0.0589 -1.6961,1.40777 -2.94531,2.99805 l -0.002,-0.002 c -1.24924,1.59029 -1.96222,2.84289 -1.58593,2.78321 1.89033,-0.29976 6.08192,-3.70185 8.05468,-6.53711 2.78045,-3.99595 4.47521,-4.28516 7.6875,-1.31055 2.33598,2.16317 2.4079,2.41591 0.91211,3.22266 -1.53588,0.82844 -1.5255,0.8974 0.21875,1.26758 2.96931,0.63015 3.65883,0.24522 4.41016,-2.4668 0.4179,-1.5085 1.30437,-2.4379 2.15234,-2.25781 2.58501,0.54862 0.85053,-4.44016 -2.35156,-6.76563 -3.38049,-2.45502 -5.41594,-2.43211 -7.8418,0.0918 -0.90693,0.94347 -2.06564,1.54293 -2.57422,1.33008 -1.38625,-0.58011 -2.17683,-7.15838 -0.88476,-7.36329 0.61531,-0.0976 1.77894,-1.23315 2.58398,-2.52539 1.95462,-3.13733 5.84469,-2.85666 11.55469,0.83204 4.89543,3.16247 5.73504,3.3926 3.99219,1.09765 -2.75116,-3.62257 -9.65867,-7.87887 -11.73242,-7.23047 -2.51849,0.78766 -6.38603,3.64507 -7.20313,5.32227 -0.32353,0.66405 -0.85353,-1.24143 -1.17773,-4.23438 -0.58534,-5.40229 -0.56232,-5.4515 2.98828,-6.90429 1.96709,-0.80488 4.53226,-2.8678 5.70312,-4.58204 2.02432,-2.96375 2.31571,-3.0809 5.93555,-2.40039 2.09371,0.39363 4.47775,0.62405 5.29492,0.50977 2.30302,-0.32039 4.03248,-2.24951 3.04492,-3.39648 -0.33756,-0.39189 -0.6326,-0.56737 -0.95703,-0.51563 z m -28.43164,0.56055 c -0.14702,0.006 -0.30101,0.0304 -0.45703,0.0742 -0.17839,0.0497 -0.35795,0.12584 -0.53906,0.23046 -0.74601,0.4308 -1.04949,1.14145 -0.67188,1.58008 0.80448,0.93443 1.99676,0.85673 2.74805,-0.17773 0.67748,-0.93286 -0.0508,-1.75066 -1.08008,-1.70703 z m 36.78125,4.17578 c -0.50419,0.21279 -0.63697,1.95583 -0.95898,6.54297 -0.16592,2.36626 -0.0107,4.51134 0.3457,4.76953 0.95033,0.69014 1.80441,-0.8186 2.81445,-4.97852 0.76691,-3.15803 0.65331,-3.93598 -0.76953,-5.34961 -0.69392,-0.68947 -1.12912,-1.11203 -1.43164,-0.98437 z m -35.90039,0.49805 c -0.13682,-0.034 -0.44807,0.26708 -0.99414,0.88867 -0.71837,0.81774 -1.28059,1.65445 -1.24805,1.85937 0.17537,1.10655 1.87581,-0.15826 2.1875,-1.62695 0.1527,-0.71903 0.19189,-1.08719 0.0547,-1.12109 z m 41.97266,2.52343 c -0.75069,0.0204 -1.39282,1.68468 -1.9336,5.00391 -0.37855,2.3234 -1.20221,4.81035 -1.83203,5.52734 -0.62989,0.71696 -1.02266,2.0253 -0.875,2.90821 0.23509,1.3964 0.36373,1.39377 0.99219,-0.0274 1.12014,-2.53224 1.121,-0.4143 0.002,2.96485 -1.20128,3.62548 -1.02878,10.19326 0.28321,10.74218 0.51583,0.21585 0.75482,-0.76926 0.52929,-2.1914 -0.22563,-1.42217 0.0299,-2.40197 0.57227,-2.17578 1.10472,0.46227 1.00328,4.30009 -0.16992,6.41406 -0.52165,0.93985 -0.39374,1.32844 0.39648,1.20312 0.64173,-0.10178 0.93073,0.37782 0.64258,1.06641 -0.34847,0.83309 -0.12902,0.91227 0.65625,0.23633 0.88142,-0.75891 1.0743,-0.52265 0.76562,0.93164 -0.39518,1.86202 -0.34044,1.85879 1.22852,-0.0898 1.1122,-1.38112 1.82433,-1.68563 2.21094,-0.94141 0.3137,0.60377 1.92244,-1.2153 3.57617,-4.04297 1.65377,-2.82772 2.63825,-5.57018 2.1875,-6.09375 -0.45078,-0.52354 -0.17812,-1.93544 0.60742,-3.13867 0.78542,-1.20321 1.11622,-2.13673 0.73438,-2.07617 -0.38189,0.0605 -1.62867,1.51004 -2.77149,3.22265 -1.14278,1.71285 -1.97002,2.37162 -1.83789,1.46485 0.3137,-2.15389 -1.50311,-4.38071 -2.20508,-2.70313 -0.2759,0.6601 0.0583,1.11041 0.74219,1.00195 0.96707,-0.15337 1.02334,0.10777 0.24805,1.17579 -1.11149,1.53043 -1.1269,3.41204 -0.0195,2.45898 0.87677,-0.75492 1.32205,3.08027 0.65039,5.5918 -0.71619,2.67765 -1.94854,2.48484 -2.40235,-0.37696 -0.21543,-1.35801 0.0234,-2.53672 0.53125,-2.61718 0.50729,-0.0805 0.68659,0.41686 0.39844,1.10546 -0.31748,0.75833 -0.13248,0.91633 0.4668,0.4004 0.54436,-0.46866 0.62916,-1.4764 0.18945,-2.23829 -0.59448,-1.02939 -1.09064,-1.05443 -1.92773,-0.10156 -1.6478,1.87575 -4.44249,-1.89334 -3.0918,-4.16992 0.7409,-1.24897 0.6809,-1.56186 -0.27539,-1.41016 -0.91665,0.14536 -1.00327,-0.18657 -0.33984,-1.30468 0.48956,-0.82497 0.75165,-1.68365 0.58203,-1.90625 -0.1697,-0.22247 0.56344,0.28365 1.63086,1.12304 1.25608,0.98779 2.11346,1.11634 2.42773,0.36524 0.336,-0.80229 1.0532,-0.85413 2.32422,-0.16992 1.01064,0.54443 1.44779,0.65352 0.97266,0.24414 -0.47521,-0.40938 -0.21087,-2.30053 0.58593,-4.20508 0.79688,-1.90459 1.12465,-3.70057 0.72852,-3.98828 -0.39625,-0.28759 -0.41585,-1.17211 -0.0449,-1.9668 0.37077,-0.79468 -0.19714,-0.14787 -1.26172,1.43945 -1.63956,2.44429 -1.88811,2.5706 -1.62891,0.81446 0.25058,-1.69748 0.0194,-1.56764 -1.26953,0.70898 -0.86615,1.52956 -1.50821,3.22568 -1.42578,3.76953 0.0824,0.54396 0.43291,0.33452 0.77734,-0.46289 0.51855,-1.20061 0.75342,-1.23005 1.36328,-0.17383 0.48446,0.83892 -0.0606,1.46926 -1.59179,1.84375 -2.92872,0.71625 -3.05196,-0.0879 -0.69532,-4.63281 1.82812,-3.52543 1.35348,-7.78837 -0.57226,-5.13672 -1.60214,2.20611 -2.80756,1.57423 -1.32617,-0.69531 0.80341,-1.23082 1.06572,-2.87683 0.58984,-3.70117 -0.38668,-0.66963 -0.7525,-0.99947 -1.09375,-0.99024 z m 33.0625,0.56055 c -0.23396,0.0888 -0.0374,1.28037 0.50195,2.90039 0.6155,1.85144 1.89368,6.31886 2.83984,9.92774 0.94606,3.60881 2.11383,6.49993 2.59375,6.42382 0.47997,-0.0761 0.81211,-0.47132 0.73633,-0.87695 -0.48397,-2.65131 -5.93647,-17.93839 -6.54297,-18.34375 -0.051,-0.034 -0.0956,-0.0438 -0.1289,-0.0312 z m 3.25586,2.48828 c -0.0722,0.0185 0.12263,0.4246 0.52734,1.23828 0.47044,0.94546 1.0694,2.67376 1.33008,3.83985 0.47369,2.1181 0.47447,2.11827 0.55078,-0.14063 0.0404,-1.24363 -0.5569,-2.97193 -1.33008,-3.83984 -0.66542,-0.747 -1.00563,-1.11622 -1.07812,-1.09766 z m -3.67774,5.81641 c -0.0378,-0.0125 -0.0699,-10e-4 -0.0937,0.0312 -0.18935,0.26041 0.51959,3.04161 1.57227,6.18164 2.20509,6.57762 3.84832,23.72221 1.81055,18.88867 -0.6601,-1.56593 -0.45884,0.22413 0.44726,3.97852 1.93856,8.03333 2.73167,9.28203 1.99609,3.14257 -0.48616,-4.05806 -0.40491,-3.94807 1.07032,1.43555 l 1.5957,5.82031 -0.64258,-5.97265 -0.64258,-5.97266 1.55274,4.81641 c 0.85379,2.64895 1.94834,7.06846 2.43359,9.82226 0.48552,2.75378 1.22692,5.25589 1.64649,5.56055 h 0.002 c 1.21844,0.88504 1.16011,0.40992 -0.93359,-7.57031 -1.0927,-4.16514 -2.79912,-10.95796 -3.79102,-15.09375 -0.9919,-4.13578 -2.66623,-10.11476 -3.71875,-13.28907 -1.0526,-3.17433 -2.39387,-7.22463 -2.98242,-8.99804 -0.51496,-1.55175 -1.06579,-2.6945 -1.32227,-2.78125 z m -24.89843,0.78906 c 0.11889,0.0607 -0.0413,0.61873 -0.4375,1.76758 -0.99893,2.89454 -1.26688,2.99561 -2.46094,0.92773 -0.50653,-0.87706 -0.55477,-1.32879 -0.10742,-1.0039 0.44738,0.32496 1.39645,-0.069 2.10742,-0.87305 0.42178,-0.47693 0.69259,-0.75724 0.83008,-0.8125 h 0.002 c 0.0275,-0.0105 0.0499,-0.0143 0.0664,-0.006 z m 31.78906,1.97266 c -0.35717,0.0566 0.0174,1.93402 0.82812,4.17187 0.8126,2.23784 1.64122,5.40999 1.8418,7.04883 0.36472,2.97706 0.36487,2.97684 -0.47656,0.32812 -0.93426,-2.94086 -2.85064,-3.39111 -2.40235,-0.56445 0.1561,0.98667 1.17584,4.3125 2.26563,7.39258 1.08975,3.08008 3.03816,10.032 4.33008,15.44727 l 2.34961,9.84765 -1.06641,-8.4375 c -0.9727,-7.69034 -0.93554,-8.05402 0.42773,-4.11719 0.82262,2.37547 1.863,6.4242 2.3125,8.99805 0.44943,2.57389 1.10451,4.63342 1.45313,4.57813 1.05366,-0.1671 -3.54893,-20.39112 -7.50391,-32.98047 -2.04136,-6.49801 -4.00247,-11.76949 -4.35937,-11.71289 z m -7.08789,3.47265 c -0.0189,-0.003 -0.0328,0.002 -0.0449,0.0195 -0.20822,0.2871 0.36167,3.2037 1.26758,6.47852 h -0.002 c 0.9061,3.27483 1.8252,5.70922 2.04102,5.41211 0.21581,-0.2973 -0.354,-3.2099 -1.26758,-6.47461 -0.85633,-3.0607 -1.71812,-5.39256 -1.99414,-5.43555 z m -32.21094,2.92774 c -0.0693,0.005 -0.0266,0.0805 0.14258,0.22851 0.46155,0.3993 0.54683,1.56421 0.1914,2.58789 -0.35527,1.02365 -0.32143,2.09612 0.0762,2.38477 1.06359,0.77244 1.24353,0.63013 2.01757,-1.59961 0.53961,-1.55456 0.2548,-2.2721 -1.21093,-3.06445 -0.65682,-0.355 -1.09205,-0.54304 -1.21485,-0.53711 z m 44.56445,1.85351 c -0.065,0.0193 -0.12318,0.0742 -0.17383,0.16406 -0.26343,0.46756 6.25029,25.19842 7.61719,28.91993 1.89921,5.17013 1.30061,0.58854 -1.49609,-11.46094 -2.41304,-10.39695 -4.96905,-17.91005 -5.94727,-17.62305 z m -36.46875,1.79883 c 0.32432,0.0516 0.53051,0.39383 0.41407,1.0957 -0.11263,0.67914 -0.70503,1.49318 -1.31641,1.81055 -0.68334,0.35501 -0.97641,-0.0616 -0.75977,-1.08203 0.20221,-0.95227 0.79939,-1.60282 1.30664,-1.78125 0.12682,-0.0446 0.24737,-0.0602 0.35547,-0.043 z m 4.19727,0.66992 c -0.11981,0.0163 -0.26202,0.23143 -0.43164,0.63672 -0.34885,0.83312 -0.31098,2.0739 0.084,2.75781 0.39496,0.68398 0.26495,1.31611 -0.29101,1.4043 -0.55605,0.0882 -1.22063,-0.19197 -1.47461,-0.62305 -0.25399,-0.43105 -1.2961,0.64406 -2.31446,2.39063 -1.01839,1.74662 -1.42645,3.10953 -0.9082,3.02734 0.51825,-0.0822 1.48182,-1.25979 2.14063,-2.61718 1.12497,-2.31822 1.21987,-2.34963 1.55859,-0.52735 0.35905,1.93091 0.3655,1.92909 1.34961,-0.21484 0.54383,-1.18468 0.87567,-3.26946 0.73828,-4.63281 -0.1115,-1.10548 -0.25116,-1.62904 -0.45117,-1.60157 z m -39.9668,0.0332 c 1.74444,-0.14302 4.11861,1.04336 4.32422,2.33984 0.14135,0.89044 -0.65018,1.04246 -4.72266,0.91406 -2.62926,-0.0829 -2.83475,-2.18869 -0.30273,-3.10937 0.21543,-0.0783 0.45195,-0.12409 0.70117,-0.14453 z m 60.23828,0.26367 c -0.11074,-0.009 -0.1294,0.5214 -0.0976,1.54101 0.0491,1.57071 0.42886,3.44581 0.8457,4.16797 1.32786,2.29963 1.401,1.33502 0.2168,-2.90429 -0.52834,-1.89153 -0.82255,-2.79302 -0.96485,-2.80469 z m -88.35547,0.55664 c -0.66625,0.0606 -1.09677,0.73295 -0.88281,2.08203 0.24302,1.53064 1.84607,3.23094 4.53906,4.81641 4.00936,2.36045 5.79418,2.87509 5.59375,1.61132 -0.0521,-0.32923 -1.28734,-1.26556 -2.74609,-2.08007 -1.45878,-0.81452 -3.09162,-2.50707 -3.62695,-3.76172 -0.77295,-1.81217 -2.02036,-2.7459 -2.87696,-2.66797 z m 56.69141,2.82617 c 0.36699,-0.0786 0.33614,0.63438 -0.004,2.23633 -0.19351,0.91155 -0.74923,1.71995 -1.23437,1.79687 -1.36611,0.21665 -1.29523,-1.43366 0.13086,-3.05664 0.52369,-0.59611 0.88726,-0.92937 1.10742,-0.97656 z m 36.88672,5.07617 c 0.20825,-0.0329 0.7674,1.01711 1.24219,2.33399 0.47497,1.31684 0.48183,2.4551 0.0156,2.52929 -0.46787,0.0742 -1.02683,-0.97596 -1.24219,-2.33398 -0.21543,-1.35802 -0.22236,-2.49627 -0.0156,-2.5293 z m 6.11914,0.39063 c 0.0918,-6.5e-4 0.22335,0.13541 0.38867,0.41211 0.39825,0.66771 0.49669,1.52413 0.2207,1.90429 -0.27628,0.38024 -0.60046,-0.1669 -0.72265,-1.21484 -0.0843,-0.72379 -0.0402,-1.10049 0.11328,-1.10156 z m -10.52344,2.89648 c -0.13144,0.0134 -0.0576,1.07747 0.23242,2.94141 l -0.002,0.002 c 0.42308,2.71587 0.80394,3.916 0.8457,2.66406 0.0442,-1.25215 -0.30224,-3.4761 -0.76757,-4.9414 -0.14416,-0.45483 -0.24758,-0.66709 -0.3086,-0.66602 z m -21.24023,1.35742 c -0.12624,0.001 -0.25905,0.0149 -0.39844,0.0391 -2.09136,0.35682 -5.50306,3.13844 -5.29492,4.45117 0.16138,1.01643 2.32086,0.38819 2.97461,-0.86524 0.68292,-1.3092 4.59267,-2.48513 4.75976,-1.43164 0.0813,0.51201 -0.51912,1.03679 -1.33398,1.16602 -0.81479,0.12922 -1.39198,0.79447 -1.2832,1.48047 0.10885,0.68602 -0.73199,1.84416 -1.86914,2.57422 -1.57384,1.01034 -1.94104,2.15461 -1.53126,4.78711 0.29556,1.90219 0.27111,4.07064 -0.0547,4.81835 -0.40127,0.92168 0.0382,1.26076 1.36133,1.05079 1.19145,-0.18894 2.61606,-1.89606 3.65429,-4.37696 1.36573,-3.26376 1.83013,-3.71211 2.35352,-2.26758 0.70836,1.95534 -1.70756,7.40164 -3.5,7.89063 -0.60964,0.16634 -1.42383,0.46295 -1.81055,0.6582 -0.38672,0.19487 -1.49496,0.3971 -2.46094,0.45117 -2.04533,0.11441 -1.91324,3.23965 0.20118,4.7754 1.69761,1.23287 3.00776,1.09265 2.78711,-0.29883 -0.0907,-0.57393 0.20627,-0.89095 0.66015,-0.70117 1.13851,0.47636 3.44685,-2.04579 3.90039,-4.26368 0.20599,-1.00718 1.05481,-1.94034 1.88672,-2.07226 0.83184,-0.13191 1.3952,-1.01891 1.25195,-1.97071 -0.14286,-0.95187 0.096,-3.71038 0.53125,-6.13085 1.18515,-6.58904 -1.05452,-9.81205 -6.78515,-9.76368 z m -58.62891,1.125 -0.29492,2.88672 c -0.23358,2.2727 0.275,3.33089 2.39062,4.9707 2.31542,1.79456 2.60246,2.49736 2.07227,5.06446 -0.5286,2.55951 -0.20461,3.3607 2.28516,5.67773 1.59462,1.48389 2.46303,2.7676 1.93359,2.85157 -0.52944,0.084 -1.21382,1.55958 -1.52344,3.27929 -0.53805,2.98812 -0.44275,3.1075 2.19336,2.68945 1.51722,-0.24057 3.42348,-1.45298 4.23438,-2.69531 0.81018,-1.24225 1.12939,-2.20565 0.70703,-2.13867 -0.42229,0.067 -0.33338,-0.60943 0.19726,-1.50391 0.77775,-1.31101 0.33842,-2.22206 -2.26171,-4.70312 -1.77419,-1.69275 -3.61891,-3.01537 -4.09766,-2.93945 -0.47875,0.0759 -1.03037,-0.87418 -1.22656,-2.11133 -0.19616,-1.23719 -1.09657,-3.03149 -2.00196,-3.98633 -0.90534,-0.95486 -2.31299,-2.99754 -3.12695,-4.53906 z m 73.69141,4.39063 c -0.0227,-0.0121 -0.0368,-0.008 -0.0508,0.0117 -0.45332,0.6242 5.445,25.32821 7.14257,29.91211 1.97779,5.34069 1.72598,2.09471 -0.40039,-5.14063 -1.15789,-3.94009 -3.05804,-11.25206 -4.2207,-16.25 -1.09013,-4.6855 -2.15613,-8.34906 -2.4707,-8.5332 z m -1.74024,0.3789 c -0.1062,0.0694 0.15765,2.24166 0.74805,5.97657 h 0.002 c 0.85886,5.43261 1.39505,7.75436 1.19141,5.16015 -0.20447,-2.59405 -0.90728,-7.03862 -1.5625,-9.87695 -0.20485,-0.88698 -0.33091,-1.29132 -0.37891,-1.25977 z m -65.55078,0.22657 c -0.30191,-10e-4 -0.56098,0.0146 -0.77734,0.0469 -1.29823,0.19363 -1.05027,0.96679 0.88867,2.00195 2.70244,1.44267 3.68038,1.32787 3.40625,-0.40039 -0.11943,-0.75146 -1.23618,-1.46634 -2.48437,-1.58984 -0.38531,-0.0381 -0.7313,-0.0571 -1.03321,-0.0586 z m 76.00586,1.35156 c -0.0941,-0.0999 -0.0814,0.65186 -0.0273,2.18555 0.085,2.42937 -0.30319,3.26379 -1.40821,3.02929 -1.56839,-0.33294 -1.20396,1.68732 2.28711,12.69727 0.92621,2.92118 1.31183,3.36892 1.59571,1.84961 0.20598,-1.10301 -0.34053,-4.20742 -1.21485,-6.89649 -0.99197,-3.05012 -1.24387,-5.06993 -0.67187,-5.37109 0.50426,-0.26559 0.5513,-2.32272 0.10547,-4.57227 -0.37077,-1.87063 -0.57198,-2.8219 -0.66602,-2.92187 z m -14.5,0.0957 c -0.0786,0.0378 -0.13937,0.21637 -0.18359,0.53516 -0.52868,3.79285 3.15678,20.86935 5.75781,26.67773 0.17499,0.38995 0.46339,1.02874 0.64258,1.41797 0.17953,0.38924 0.52472,-0.69153 0.76562,-2.40039 0.24832,-1.76302 -0.56297,-7.32792 -1.875,-12.86523 l -2.3125,-9.75782 0.44922,6.50977 c 0.43881,6.37731 0.41058,6.31937 -1.31055,-2.83008 -0.93755,-4.98466 -1.59366,-7.45026 -1.93359,-7.28711 z m 9.49609,2.29492 c -0.0415,-0.0136 -0.0675,0.0466 -0.0762,0.18164 -0.0695,1.08046 0.84873,6.09049 2.04102,11.13477 1.1924,5.04431 2.36385,8.90225 2.60351,8.57227 0.23963,-0.32981 -0.6786,-5.34179 -2.04101,-11.13672 -1.19214,-5.07058 -2.23802,-8.65822 -2.52735,-8.75196 z m -20.22265,0.95508 c 0.47099,0.0678 0.90646,0.61516 1.01953,1.32813 0.12926,0.81485 -0.21094,1.55057 -0.75391,1.63672 -0.54315,0.0861 -1.09343,-0.50938 -1.22265,-1.32422 -0.12926,-0.81482 0.21094,-1.55254 0.7539,-1.63867 0.0679,-0.0108 0.13584,-0.0116 0.20313,-0.002 z m 27.50391,0.008 c -0.15345,10e-4 -0.19757,0.37969 -0.11329,1.10351 0.12208,1.04777 0.44657,1.59302 0.72266,1.21289 0.27591,-0.38023 0.17766,-1.23659 -0.2207,-1.9043 -0.16517,-0.27669 -0.29671,-0.41274 -0.38867,-0.4121 z m 3.71484,3.29101 c -0.0227,-0.011 -0.0399,-0.005 -0.0547,0.0156 -0.0994,0.13602 -0.0524,0.96118 0.15625,2.32031 h 0.002 c 0.33374,2.17465 0.68585,3.14951 0.78321,2.16601 0.096,-0.98328 -0.17629,-2.76203 -0.60742,-3.95312 -0.12133,-0.33502 -0.21505,-0.51524 -0.2793,-0.54883 z m -1.98242,0.60156 c -0.18898,-0.0382 -0.22389,0.54985 -0.0625,1.56836 0.21543,1.35813 0.52706,1.87871 0.69336,1.15625 0.1663,-0.72247 -0.0123,-1.8332 -0.39258,-2.46875 -0.0952,-0.15889 -0.17517,-0.24312 -0.23828,-0.25586 z m 20.50195,2.66602 c -0.19649,-0.0107 -0.29281,0.0647 -0.26563,0.23633 0.43643,2.75195 7.39414,6.34647 12.9629,6.69726 4.71904,0.29711 5.88468,0.80168 7.58789,3.2793 2.19303,3.19022 2.54827,8.4911 0.79687,11.9043 -0.91166,1.77691 -1.06858,1.61783 -1.49219,-1.51172 -0.26041,-1.92387 -0.10727,-3.34529 0.33985,-3.16016 1.37416,0.56901 0.43723,-2.14665 -1.32422,-3.83789 -1.55857,-1.49647 -1.66376,-1.41487 -1.64063,1.27344 0.0189,2.41867 -0.0892,2.29074 -0.70898,-0.81055 -0.50982,-2.55169 -1.1896,-3.60821 -2.2168,-3.44531 -0.81483,0.12922 -1.81757,0.27028 -2.22851,0.3125 -0.4108,0.0432 -0.79114,1.58374 -0.84375,3.42383 l -0.0937,3.34765 -0.75782,-3.42383 c -0.41589,-1.88324 -0.8991,-2.78134 -1.07617,-1.99414 -0.25927,1.15304 -0.51589,1.20835 -1.3125,0.28321 -0.54383,-0.63167 -2.04865,-1.12869 -3.34375,-1.10547 -1.30707,0.0238 -1.79743,0.29236 -1.10351,0.60547 0.90126,0.40671 0.88814,1.61255 -0.0469,4.3164 -0.71361,2.06226 -1.45709,4.53886 -1.65234,5.50586 -0.19503,0.96695 -0.96938,1.62774 -1.71875,1.46875 -0.74929,-0.15904 -1.57898,0.23201 -1.8457,0.86914 -0.81219,1.94104 -2.59206,1.64383 -2.11524,-0.35351 1.40655,-5.89174 0.97827,-9.45744 -1.63281,-13.60156 -2.79504,-4.43617 -4.36161,-5.4816 -2.83203,-1.89063 0.49991,1.17367 1.13383,3.09115 1.41015,4.26172 0.27666,1.17053 0.88293,1.80051 1.34766,1.40039 0.51745,-0.44568 0.76377,0.62096 0.63477,2.75391 -0.11604,1.9148 -0.13847,4.12619 -0.0508,4.91601 0.0865,0.78981 -1.48682,3.70215 -3.49609,6.46875 -3.54161,4.87638 -3.81879,5.04424 -9.09766,5.54883 -4.5524,0.43505 -5.13501,0.68044 -3.55664,1.48828 2.26882,1.16114 8.11918,0.39064 8.76563,-1.1543 0.2536,-0.60619 0.96899,-0.8917 1.58789,-0.63281 0.72567,0.30357 0.69688,0.84876 -0.0801,1.5332 -0.80205,0.70622 -0.007,0.87624 2.375,0.50977 4.7828,-0.73776 9.67884,-6.9638 12.54883,-15.95898 1.95315,-6.12179 2.29077,-6.58712 3.74805,-5.15039 0.88093,0.86875 1.21285,1.79351 0.73632,2.05468 -1.36641,0.74895 -0.61798,3.02861 1.11524,3.39649 0.86445,0.18342 1.68059,1.01187 1.8125,1.84375 0.1319,0.83186 0.57821,1.49583 0.99219,1.47265 0.41397,-0.023 1.52381,-0.0184 2.46484,0.0137 1.06488,0.0359 1.4473,-0.3957 1.01367,-1.14649 -0.38305,-0.6633 -0.33314,-1.51955 0.11133,-1.90234 0.4447,-0.3829 1.10997,0.83101 1.47851,2.69922 0.36889,1.86822 0.20762,3.47087 -0.35742,3.56054 -0.56545,0.0897 -1.5934,0.9408 -2.2832,1.89063 -0.6898,0.94978 -1.70521,1.53779 -2.25781,1.30664 -0.55261,-0.23119 -1.16096,0.31334 -1.35157,1.21094 -0.19083,0.8975 -0.78442,1.44799 -1.31835,1.22461 -0.53401,-0.22341 -0.89711,0.0512 -0.8086,0.60937 0.0884,0.55818 -0.49807,0.87595 -1.30273,0.70508 -1.8579,-0.3943 -4.06676,4.00926 -2.9668,5.91406 0.50801,0.87965 0.38109,1.24906 -0.32617,0.95313 -0.6353,-0.26582 -1.28683,0.13777 -1.44727,0.89453 -0.20598,0.96958 0.66054,1.20917 2.93555,0.80859 2.1806,-0.38385 3.01002,-0.95059 2.55273,-1.74219 -0.37228,-0.6445 -0.18534,-1.24838 0.41602,-1.34375 0.60132,-0.0953 1.17273,0.33454 1.27148,0.95704 0.099,0.6225 1.09599,-0.33289 2.21485,-2.12305 1.11885,-1.79015 2.51456,-4.01302 3.10156,-4.94141 0.587,-0.9284 1.24559,-2.61517 1.46484,-3.74804 0.30652,-1.58178 0.6373,-1.78397 1.41993,-0.875 0.71331,0.82831 1.16803,0.82261 1.51953,-0.0176 0.27553,-0.66003 0.10422,-1.66478 -0.38281,-2.23047 -0.56263,-0.65356 -0.40809,-0.82858 0.42382,-0.48047 0.7705,0.32239 1.95639,-0.48883 2.88086,-1.97266 0.86427,-1.38703 1.64562,-2.05444 1.73633,-1.48242 0.0907,0.57203 1.8666,2.29647 3.94727,3.83203 9.21176,6.79834 11.61508,12.75701 8.74218,21.67188 -2.02722,6.29065 -3.72495,8.76813 -6.2832,9.17383 -3.24782,0.51505 -3.65652,-2.13492 -0.86719,-5.6211 2.52828,-3.16003 4.10066,-11.28686 1.80078,-9.30664 -0.56643,0.4877 -0.90133,1.6983 -0.74414,2.68945 0.15685,0.99116 -1.23671,3.69267 -3.09961,6.00196 -2.89727,3.59159 -4.06574,4.30292 -8.07812,4.92773 -5.04374,0.78318 -8.67531,-0.0817 -6.98242,-1.66211 5.91261,-5.52022 7.33749,-7.1971 7.15429,-8.40039 -0.15874,-1.03102 -0.72567,-0.76968 -2.11718,0.97656 -2.5934,3.25456 -7.62659,6.78322 -8.91016,6.2461 -0.57895,-0.24223 -0.97218,0.0721 -0.87305,0.69726 0.22035,1.38942 -9.5845,2.49248 -11.73437,1.32032 -2.69375,-1.46868 -6.08122,-4.09263 -7.26758,-5.63282 -0.98407,-1.27759 -0.6264,-1.7366 2.11523,-2.71484 1.81346,-0.647 3.44195,-1.86471 3.6211,-2.70898 0.17915,-0.84445 0.80816,-1.334 1.39648,-1.0879 1.99178,0.83344 4.5755,-2.19222 6.72461,-7.87695 1.1771,-3.11353 2.2091,-7.04067 2.29297,-8.72461 0.11528,-2.31617 -0.27601,-1.76071 -1.60156,2.2793 -0.96382,2.93723 -2.38167,6.36627 -3.15039,7.61719 -2.3904,3.88971 -7.62066,7.71189 -11.63281,8.5039 -5.94116,1.17307 -7.05845,1.13632 -9.05079,-0.31054 -1.01896,-0.74 -2.1128,-0.97178 -2.43164,-0.51563 -0.31861,0.45617 0.47507,1.31843 1.76563,1.91797 2.1902,1.01748 2.28178,1.299 1.35742,4.23047 -0.54467,1.72725 -1.51994,3.18766 -2.16602,3.24609 -0.82326,0.0745 -0.82898,-0.10164 -0.0215,-0.58789 2.18563,-1.31251 0.88645,-2.36285 -2.32226,-1.87695 -1.76739,0.26714 -6.75083,0.64209 -11.07227,0.83203 -10.18261,0.44748 -12.17423,-0.84714 -13.61328,-8.83789 -0.99621,-5.53184 -0.94407,-5.75777 1.39648,-5.86719 2.25135,-0.10537 2.29855,-0.22845 0.62305,-1.61914 -4.5473,-3.77428 -4.07334,-7.07642 3.00391,-20.95508 2.27006,-4.45164 3.6641,-8.56444 3.42187,-10.09179 -0.26986,-1.70276 -0.79788,-2.46896 -1.27539,-2.36329 l 0.004,0.002 c -0.47743,0.10567 -0.90617,1.0823 -0.98047,2.86133 -0.0643,1.54164 -1.22079,4.57326 -2.57031,6.73632 -1.34956,2.16307 -2.75977,4.4453 -3.13477,5.07032 -2.45019,4.08369 -4.63114,11.99209 -4.30273,15.60742 0.21124,2.32857 0.10452,6.13858 -0.23829,8.4668 -0.55169,3.74514 -0.33748,4.63703 1.86719,7.73828 3.89223,5.47518 7.57438,6.87186 14.69531,5.57422 3.31597,-0.60427 7.08388,-0.87926 8.375,-0.60938 2.24939,0.47017 2.32421,0.68098 1.73438,5.02149 -0.33827,2.49145 -0.58438,8.13629 -0.54492,12.54492 0.0393,4.40858 -0.24073,9.05583 -0.6211,10.32617 -0.38007,1.27037 -0.20334,3.45296 0.39258,4.84961 2.11918,4.96826 -0.3322,11.52712 -8.44141,22.57812 -4.16206,5.67186 -8.80761,12.48396 -10.32226,15.14063 -1.51461,2.65659 -3.17979,5.46508 -3.70117,6.24219 -1.01749,1.51627 -6.61813,13.95542 -6.66602,14.80468 -0.13342,2.36788 -1.62818,6.48401 -2.20312,6.06641 -0.39651,-0.288 -1.23998,0.0667 -1.87305,0.78711 -0.86744,0.98778 -1.20761,0.97649 -1.38086,-0.0449 -0.13833,-0.81483 -0.45614,-0.91418 -0.79883,-0.25 -0.31294,0.6065 -2.23634,1.36641 -4.27343,1.68945 -2.03717,0.32315 -3.77519,0.1443 -3.86329,-0.39844 -0.0881,-0.54293 -1.91421,-3.44384 -4.05664,-6.44531 -2.14242,-3.00151 -4.01613,-6.12175 -4.16406,-6.93359 -0.14853,-0.81177 -1.05871,-2.23413 -2.02344,-3.16211 -0.96472,-0.92799 -1.91357,-2.68797 -2.10742,-3.91016 -0.19351,-1.22211 -0.82207,-2.41982 -1.39648,-2.66016 -0.57434,-0.24037 -1.70874,-1.79424 -2.52149,-3.45507 -0.81286,-1.6608 -2.80522,-5.50011 -4.42773,-8.53125 -1.62252,-3.03115 -3.21893,-7.20333 -3.54688,-9.27149 -0.713,-4.49609 1.07899,-14.08035 3.30078,-17.64648 0.8764,-1.40663 1.53177,-2.95226 1.45508,-3.43555 -0.0767,-0.48325 1.26927,-3.47571 2.99024,-6.64844 1.72097,-3.17272 3.92166,-7.25023 4.89062,-9.0625 0.96896,-1.8122 2.895,-4.7617 4.28125,-6.55468 1.38629,-1.79295 4.50554,-5.82966 6.92969,-8.96875 4.94929,-6.40887 6.21737,-7.0901 6.76562,-3.63282 0.47959,3.02389 1.81558,5.36461 2.95704,5.1836 2.00579,-0.31809 -0.57205,-7.19131 -5.6543,-15.07813 -1.39238,-2.16081 -2.80222,-5.636 -3.13281,-7.7207 -0.96265,-6.07015 -5.52594,-9.18514 -14.07618,-9.60742 -3.80575,-0.18811 -7.24051,-0.0666 -7.63086,0.26953 -0.39035,0.33611 -1.36255,0.0363 -2.1621,-0.66602 -0.79956,-0.70234 -2.07343,-1.17827 -2.82813,-1.05859 -1.04772,0.16615 -1.36924,-0.739 -1.36523,-3.83203 0.003,-2.22795 -0.23854,-4.01386 -0.53516,-3.9668 -0.29669,0.047 -1.27068,1.83498 -2.16602,3.97461 -0.89529,2.13966 -2.38916,4.866 -3.31836,6.05469 -1.09051,1.3951 -1.5726,3.86215 -1.36132,6.96093 0.29064,4.25838 0.75278,5.17067 4.10156,8.08399 2.07643,1.80639 4.73035,3.47619 5.89648,3.70898 1.52323,0.3041 -0.0237,1.14365 -5.49414,2.98243 -4.18764,1.40773 -8.13623,2.74785 -8.77539,2.98046 -1.42144,0.51718 -5.90954,4.86694 -8.74804,8.47852 -1.48853,1.89399 -1.8167,3.22932 -1.13086,4.59766 0.53144,1.06083 0.53656,1.99851 0.008,2.08203 -1.41676,0.22465 -2.23279,6.13058 -1.49219,10.80078 0.35603,2.24636 2.86712,10.77725 5.58203,18.95898 l 4.9375,14.87696 -2.99414,3.78125 c -1.64655,2.08044 -4.33728,6.62636 -5.98047,10.10156 -5.12417,10.83726 -3.64265,21.81127 4.09571,30.33203 1.17165,1.29007 1.91736,2.85124 1.6582,3.4707 -0.27402,0.65526 0.25599,0.87836 1.26758,0.53125 1.11957,-0.38419 2.3654,0.29653 3.49804,1.91016 0.9673,1.37805 2.50689,2.35406 3.42188,2.16992 1.37722,-0.27742 1.29839,-0.44154 -0.45898,-0.95117 -1.53718,-0.44583 -1.00982,-0.62385 1.91406,-0.64649 5.41621,-0.0419 6.50491,0.55347 3.80273,2.08399 -4.02697,2.28106 -12.78187,5.19783 -29.01562,9.66406 -10.80291,2.97203 -14.23895,5.09458 -4.91407,3.03516 10.76074,-2.37661 19.33766,-4.57551 19.9668,-5.11719 1.04731,-0.90176 14.97017,-5.11693 20.82617,-6.30469 1.61859,-0.32844 3.41618,-1.00727 3.99414,-1.50976 0.57786,-0.50276 1.37982,-0.53124 1.78321,-0.0625 0.44428,0.51609 1.99805,0.0724 3.9414,-1.12696 2.49351,-1.53913 3.25494,-1.70261 3.41992,-0.73437 0.14136,0.82549 0.40294,0.85055 0.77344,0.0781 0.84235,-1.75593 10.78512,-4.89004 19.59766,-6.17773 4.30394,-0.62899 7.76831,-1.5038 7.69922,-1.94336 -0.0688,-0.43986 0.44858,-0.5603 1.14844,-0.26758 0.69982,0.29292 2.5275,0.37308 4.06445,0.17578 2.19239,-0.28082 2.90764,-0.9759 3.3125,-3.22461 0.28384,-1.57636 0.93133,-2.93113 1.43945,-3.01171 0.89159,-0.14136 1.75434,-4.40868 1.00195,-4.95508 -0.20333,-0.1474 -1.59699,1.30743 -3.09765,3.23242 -2.99002,3.83543 -3.97458,4.34429 -5.02344,2.59766 -0.43499,-0.72458 -0.62548,-0.53934 -0.51172,0.49414 0.12624,1.14663 -0.44753,1.58479 -1.87695,1.44336 -1.13148,-0.11188 -2.08906,-0.48684 -2.125,-0.83399 -0.19805,-1.84169 2.39229,-4.63648 5.25195,-5.66406 1.78723,-0.64226 3.90373,-1.64187 4.70117,-2.2207 0.85573,-0.62113 1.98674,-0.66095 2.75977,-0.0996 0.98336,0.71418 1.97327,-0.0852 3.97461,-3.20899 1.46596,-2.28812 3.20976,-4.24607 3.875,-4.35156 0.66523,-0.10583 1.13089,-0.68547 1.03515,-1.28906 -0.16967,-1.06934 3.59719,-7.92842 9.39454,-17.10742 1.57704,-2.49695 3.79935,-6.16391 4.93945,-8.1504 1.14006,-1.98648 3.50219,-5.76192 5.25,-8.39062 1.74777,-2.62862 4.20658,-6.76472 5.46289,-9.19141 1.25624,-2.42676 2.49491,-4.67481 2.75195,-4.99414 0.25739,-0.31899 0.34423,-1.92725 0.19532,-3.57422 -0.25739,-2.84337 -0.32362,-2.88325 -1.35547,-0.79687 -0.59751,1.20854 -1.36165,2.7164 -1.69727,3.35351 -0.33562,0.63708 -1.07508,2.54152 -1.64258,4.23047 -1.78371,5.30892 -3.07064,4.71886 -4.96093,-2.27539 -3.38548,-12.52658 -4.31001,-36.26197 -1.42774,-36.6582 0.38763,-0.0533 2.18027,2.01989 3.98242,4.60547 3.79559,5.44534 7.20214,6.56787 16.05274,5.28906 3.32783,-0.48086 6.46521,-0.30796 8.00586,0.44336 2.27187,1.1079 6.30854,0.86716 11.57422,-0.68945 2.0417,-0.60356 3.3614,1.62402 5.68554,9.59961 1.03865,3.56437 1.07062,6.8092 0.13477,13.50781 -0.67741,4.8497 -1.65985,8.88733 -2.18555,8.9707 -0.52581,0.0831 -0.84967,0.82675 -0.71875,1.65235 0.42002,2.64865 -13.80029,34.19126 -15.1582,33.62304 -0.45506,-0.19049 -0.75331,0.12413 -0.66211,0.69922 0.0915,0.57528 -0.58194,2.07724 -1.4961,3.33594 -0.91408,1.25873 -1.41043,2.2476 -1.10546,2.19922 0.305,-0.0484 -0.69292,1.47803 -2.21875,3.39062 -1.52576,1.91259 -3.1208,3.53268 -3.54297,3.59961 -0.42225,0.0669 -0.6612,0.80098 -0.5293,1.63281 0.13191,0.83188 -0.38522,1.87244 -1.15039,2.31446 -0.76528,0.4419 -1.30832,1.32839 -1.20703,1.96679 0.10129,0.63833 -1.58888,3.2479 -3.75391,5.80079 -2.16506,2.55295 -4.71168,5.88378 -5.66015,7.40039 -0.94855,1.51657 -2.64707,3.83592 -3.77344,5.15429 -3.21256,3.76022 -7.42707,9.5416 -8.11328,11.12696 -2.53603,5.8583 -7.75618,7.99157 -22.19727,9.07422 -9.90017,0.74219 -26.76907,3.17821 -27.32617,3.94531 -0.29972,0.41276 -1.3413,0.47246 -2.31445,0.13476 -2.82675,-0.98128 -22.12348,1.48451 -21.9336,2.80274 0.10734,0.7415 -0.13378,0.8083 -0.72656,0.20312 -0.48816,-0.4981 -1.54927,-0.77037 -2.35937,-0.61133 -1.72967,0.34281 -10.45999,0.51167 -14.13282,0.27344 -6.37837,-0.4134 -7.97152,-0.43987 -12.6875,-0.20312 -11.33922,0.56919 -15.91835,1.3905 -17.93359,3.2207 -1.11145,1.0094 -2.07315,1.50997 -2.13672,1.10938 -0.0635,-0.40048 -0.63259,-0.13877 -1.26562,0.58203 -0.63304,0.72071 -1.49037,1.06268 -1.9043,0.76171 -0.41394,-0.30082 -0.67077,-0.0256 -0.57031,0.60547 0.10053,0.63375 -0.26154,1.22442 -0.80469,1.31055 -1.49598,0.23698 -1.5315,-1.95714 -0.10352,-6.35156 0.70829,-2.17913 0.9681,-3.91148 0.57813,-3.84961 -1.13991,0.18066 -3.85805,4.92514 -4.66211,8.13672 -0.40747,1.62742 -1.17567,2.77891 -1.70703,2.55664 -0.53144,-0.22262 -1.12389,0.32892 -1.31446,1.22656 -0.19389,0.91162 -0.89901,1.39828 -1.60351,1.10352 -0.71739,-0.3001 -0.92826,-0.13952 -0.48828,0.37109 0.67007,0.7782 -9.0695,8.78449 -9.94336,8.17383 -0.18029,-0.12586 -1.18192,1.18725 -2.22461,2.91797 -1.0427,1.73068 -2.93202,3.93197 -4.19922,4.89258 -1.2672,0.96065 -2.55548,3.14595 -2.86328,4.85546 -0.58897,3.271 1.22785,10.33263 2.83203,11.00391 1.29596,0.54214 1.89285,4.92525 0.79883,5.86719 -0.50412,0.43408 -1.06306,-0.31761 -1.28711,-1.73047 -0.27628,-1.74229 -0.79063,-2.26722 -1.70313,-1.74024 -1.4954,0.86351 -2.2661,-0.49825 -4.375,-7.73828 -1.2867,-4.41747 -1.21628,-5.86965 0.55469,-11.47265 1.115,-3.52766 1.5798,-6.60142 1.0332,-6.83008 -0.54663,-0.22866 -0.92003,0.0483 -0.83007,0.61523 0.0899,0.56708 -0.79682,3.35373 -1.97071,6.19336 -2.26295,5.47427 -2.27657,10.87942 -0.041,16.47657 1.29581,3.24412 4.79821,7.76202 4.52344,5.83593 -0.23358,-1.63952 2.23093,1.59783 2.51757,3.3086 0.44346,2.63671 -6.70652,-2.89043 -10.80859,-8.35547 l -3.60547,-4.80274 1.97852,-4.10547 c 1.08695,-2.25743 1.92116,-4.44299 1.85547,-4.85742 -0.0658,-0.4145 0.77654,-2.41641 1.87109,-4.44726 1.4236,-2.64129 1.60672,-3.75633 0.64453,-3.91602 -0.88339,-0.14664 -0.46948,-1.27711 1.20508,-3.29492 1.40247,-1.68983 2.87766,-3.1382 3.27734,-3.2207 0.39999,-0.0809 1.78898,-1.68195 3.08789,-3.5586 1.29891,-1.87657 2.82268,-3.48506 3.38477,-3.57422 0.56209,-0.0892 1.16303,-0.82239 1.33398,-1.6289 0.17122,-0.80655 2.83487,-3.95043 5.92188,-6.98633 4.58978,-4.51393 6.6572,-5.80981 11.3457,-7.11133 3.15334,-0.87538 6.38101,-1.81962 7.17188,-2.09961 0.79098,-0.27968 2.65533,-0.7373 4.14257,-1.01562 1.48729,-0.27855 2.63738,-0.92292 2.55664,-1.43164 -0.14173,-0.89326 -8.06104,0.58621 -16.25,3.03515 -4.51971,1.3516 -8.81573,4.80425 -14.10351,11.33399 -2.06963,2.55571 -5.45435,6.51024 -7.52149,8.78711 -6.73576,7.41906 -9.33055,11.35726 -8.46875,12.84961 0.80501,1.39411 -1.1561,7.91335 -2.4414,8.11718 -0.7889,0.12511 -1.93322,4.90072 -2.01758,8.41992 -0.0771,3.21468 -2.7439,18.43464 -4.5625,26.03516 -1.23874,5.17727 -3.07195,11.15349 -9.4668,30.86524 -1.04749,3.22892 -1.81261,6.47429 -1.70312,7.21289 0.10998,0.73848 1.93225,-3.87984 4.04883,-10.26172 2.11657,-6.38192 4.11359,-12.10075 4.4375,-12.70899 0.94953,-1.7831 6.04624,-22.63706 7.3789,-30.1875 1.33436,-7.55977 2.60579,-8.32207 5.41016,-3.24023 1.89687,3.43748 9.58395,8.40531 10.93555,7.06641 0.45479,-0.4506 1.40404,-2.60228 2.10937,-4.78126 1.03393,-3.19431 0.99309,-4.46438 -0.21484,-6.54882 -2.61835,-4.51896 -3.67311,-8.38748 -3.07032,-11.27149 0.87769,-4.19917 2.52079,-3.66217 3.29102,1.07422 0.37455,2.30737 2.11839,7.55636 3.875,11.66406 4.06254,9.49947 4.42057,11.77226 2.04102,12.96485 -1.0317,0.51711 -1.81083,1.35273 -1.73047,1.85937 0.0805,0.50661 -0.45106,1.01696 -1.18164,1.13281 -0.73066,0.11566 -1.99184,1.22639 -2.80274,2.46876 -0.81093,1.24226 -1.99882,2.34349 -2.64062,2.44531 -0.64173,0.10167 -2.01456,2.81495 -3.04883,6.03125 -1.53105,4.76114 -1.66835,7.06807 -0.73828,12.41406 0.62842,3.61138 1.11601,12.08576 1.08203,18.83203 -0.0945,18.74351 -0.0224,24.31821 0.48633,38.50391 0.25927,7.1983 0.22713,18.54004 -0.0703,25.20312 -0.69309,15.52728 -0.12709,18.55735 0.85547,4.56641 0.69203,-9.86854 0.72466,-23.70994 0.084,-37.5 -0.14136,-3.0404 -0.29733,-11.44411 -0.34571,-18.67578 -0.0484,-7.23171 -0.12286,-15.09336 -0.16406,-17.46875 -0.0699,-4.07433 1.19987,-7.26872 1.68164,-4.23047 0.12246,0.77355 2.34483,3.66461 4.93555,6.42578 l 4.70898,5.01953 -1.76562,7.5586 c -2.44743,10.48279 -3.33906,20.2138 -3.47656,37.91601 -0.25663,33.05004 -3.04071,49.75455 -10.62305,63.75781 -3.57812,6.6082 -7.2649,10.57222 -11.18359,12.02344 -1.57422,0.58295 -2.58103,1.38885 -2.23633,1.78906 1.981,2.30071 12.04695,-6.11981 14.32812,-11.98632 0.71241,-1.83202 1.25257,-1.95427 7.82422,-1.74024 3.88256,0.12624 10.48412,-0.12183 14.67188,-0.55273 l 7.61523,-0.78321 1.79492,-6.13281 c 2.72682,-9.32103 2.33527,-17.62529 -1.54687,-32.80859 -5.59922,-21.89881 -7.40399,-32.62835 -8.08203,-48.05078 -0.35263,-8.01873 -0.54089,-14.76255 -0.41602,-14.98633 0.12473,-0.22337 2.84782,1.39379 6.05078,3.5957 3.20296,2.20192 8.30437,5.07531 11.33789,6.38477 3.03353,1.30945 6.58436,3.07444 7.88867,3.91992 1.30436,0.84555 4.35384,2.31433 6.77735,3.26367 7.22339,2.82966 11.37111,5.80041 12.44336,8.91406 0.55256,1.60441 1.59821,3.95246 2.32422,5.21875 0.72601,1.26626 1.92046,4.63193 2.65429,7.47852 0.73403,2.84662 2.87081,10.62748 4.7461,17.29101 1.87525,6.66354 4.0532,15.8858 4.84179,20.49414 1.67985,9.81555 7.32488,30.11025 10.67774,38.39063 1.29056,3.1872 3.96959,8.65029 5.95312,12.13672 l 3.60742,6.33594 -1.83789,2.90039 c -1.01007,1.59401 -2.07496,3.16689 -2.36523,3.49609 -1.5826,1.79467 -0.98306,5.43275 1.44336,8.76758 2.82316,3.87999 4.94264,5.35407 4.66016,3.24219 -0.11528,-0.86208 0.36059,-0.78705 1.41406,0.22265 0.87235,0.83622 2.71852,1.34241 4.10156,1.12305 2.02806,-0.32164 2.35291,-0.76574 1.68359,-2.29297 -0.52323,-1.19391 -1.6605,-1.76192 -3.07812,-1.53711 -2.93586,0.46556 -4.35452,-2.00559 -2.12305,-3.69727 2.46845,-1.87132 3.45779,-1.84931 6.66797,0.15626 l 2.86133,1.78906 -1.9707,2.18359 -1.97461,2.18359 2.36328,-1.0625 c 4.54208,-2.04397 11.54249,-7.34351 16.94922,-12.83203 5.92883,-6.01844 6.86051,-6.33417 3.36328,-1.13671 -3.45283,5.13147 -16.99716,14.97814 -22.89258,16.64257 -3.3354,0.94167 -4.53072,1.63386 -3.57227,2.07032 1.30326,0.59346 2.98746,0.21727 9.2168,-2.05665 2.496,-0.91117 11.20017,-7.31691 11.75977,-8.65429 0.22639,-0.54036 1.79536,-1.83508 3.48633,-2.87891 1.69085,-1.04379 3.86125,-3.40889 4.82031,-5.2539 1.69942,-3.26933 1.82197,-3.32865 4.91797,-2.30274 2.87807,0.95384 3.55709,0.83654 7.19726,-1.25781 4.84709,-2.78861 5.49422,-5.37134 2.17969,-8.6875 -1.33826,-1.33894 -3.34714,-5.25262 -4.46289,-8.69531 -2.51513,-7.76077 -6.79032,-16.97345 -10.86133,-23.40821 -2.12991,-3.36657 -4.64873,-5.73585 -8.06641,-7.58007 -2.73418,-1.47549 -5.38478,-2.61897 -5.88867,-2.53907 -1.64262,0.26041 -3.88217,-1.96187 -5.0957,-5.05859 -0.65371,-1.66821 -1.64601,-3.22312 -2.20508,-3.45703 -0.5591,-0.23396 -2.20916,-2.06424 -3.66601,-4.06641 -2.12731,-2.92361 -3.02256,-5.75878 -4.54688,-14.39844 -1.04428,-5.91681 -1.70676,-10.78752 -1.47266,-10.82422 0.79507,-0.12469 17.00621,7.83296 17.4629,8.57227 0.24979,0.40452 0.85265,0.6733 1.34179,0.5957 0.95906,-0.15193 16.16303,7.29071 20.80274,10.1836 1.55539,0.96982 5.68294,3.30278 9.17382,5.18359 3.49085,1.88088 6.40871,3.80995 6.48438,4.28711 0.076,0.47713 0.65561,0.78402 1.28906,0.68359 0.63345,-0.10053 1.96106,0.36569 2.94922,1.03516 4.45659,3.0189 15.68841,9.1503 16.87695,9.21289 0.72341,0.0378 2.11666,0.71042 3.09571,1.49414 0.97897,0.78372 3.57427,2.06361 5.76953,2.84571 2.19522,0.78206 7.02639,2.50886 10.73437,3.83593 3.70795,1.32707 11.08285,3.35742 16.38867,4.51172 11.04057,2.40193 14.01342,3.41541 24.26758,8.28125 4.06855,1.93058 8.22169,3.3784 9.22852,3.21875 1.00679,-0.15949 2.04807,0.12732 2.31445,0.63672 0.26646,0.50922 3.23308,0.77868 6.5918,0.59961 6.69078,-0.35679 10.21517,-2.16237 9.74023,-4.98828 -0.17574,-1.04856 -0.49279,-1.23443 -0.83593,-0.49024 -0.62869,1.36313 -3.95204,2.12406 -4.13868,0.94727 -0.0673,-0.42463 -1.42324,-1.79503 -3.01367,-3.04492 -3.25085,-2.55508 -4.05574,-4.83127 -1.83398,-5.1836 0.81483,-0.12926 1.40097,-0.79249 1.30078,-1.47265 -0.12057,-0.82485 0.21692,-0.79259 1.01172,0.0937 0.65582,0.73141 1.13736,0.94373 1.07031,0.47265 -0.0665,-0.47123 1.10831,-0.3055 2.60742,0.36914 2.38613,1.07354 2.69519,1.03967 2.48633,-0.27734 -0.31446,-1.98206 -4.29699,-4.82986 -5.9082,-4.22461 -6.8174,2.56048 -7.11532,8.94152 -0.60742,12.99609 2.54945,1.58846 2.0998,1.90954 -3.35743,2.39649 -3.19642,0.28498 -13.26088,-2.54355 -18.73047,-5.26367 l -3.31445,-1.64844 2.22656,-2.49219 c 2.63887,-2.95408 4.76957,-14.13659 3.09766,-16.25781 -0.88649,-1.12475 -1.21193,-0.82691 -1.71094,1.56055 -0.33864,1.62134 -0.51642,3.57526 -0.39453,4.34375 0.4687,2.95532 -1.76172,9.85755 -3.30078,10.21679 -2.81824,0.65791 -4.58602,0.46116 -6.41406,-0.71484 -0.9806,-0.63129 -2.03228,-0.80175 -2.33789,-0.38086 -0.30577,0.421 -0.6405,0.21865 -0.7461,-0.44727 -0.10545,-0.66732 -0.53131,-0.91908 -0.94336,-0.56445 -0.41204,0.3549 -6.32468,-1.12408 -13.14257,-3.28711 -6.81797,-2.16302 -12.54262,-3.73154 -12.72071,-3.48633 -0.17764,0.24492 -0.99408,-0.14253 -1.8125,-0.86132 -0.81838,-0.71898 -2.1013,-1.21239 -2.84961,-1.09375 -0.74827,0.11867 -1.41909,-0.16056 -1.49218,-0.6211 -0.0729,-0.46068 -2.03701,-1.35895 -4.36524,-1.99414 -2.32819,-0.6353 -4.30516,-1.60504 -4.39258,-2.15625 -0.0873,-0.5512 -0.39249,-0.67972 -0.67773,-0.28711 -0.28498,0.39277 -1.49443,-0.13764 -2.68555,-1.17773 -1.191,-1.0402 -2.13054,-1.59358 -2.0918,-1.22852 0.0393,0.3651 -1.7321,-0.60531 -3.9375,-2.1582 -2.20543,-1.55286 -4.34259,-2.77294 -4.74609,-2.70899 -0.40343,0.0639 -2.75029,-1.13855 -5.21484,-2.67187 -2.46459,-1.53335 -6.26605,-3.27843 -8.44922,-3.87695 -2.18317,-0.59853 -4.02851,-1.46314 -4.10156,-1.92383 -0.0729,-0.46073 -0.69168,-0.76267 -1.37305,-0.66992 -0.68145,0.0918 -4.0981,-1.75812 -7.59375,-4.11133 -6.54372,-4.40515 -7.11872,-4.7526 -15.55859,-9.38672 -2.74292,-1.50607 -5.66546,-3.20636 -6.49219,-3.7793 -0.8267,-0.57297 -1.88202,-0.98205 -2.34766,-0.9082 -0.46556,0.0737 -1.57373,-0.39274 -2.46094,-1.03711 -0.8872,-0.64437 -4.1758,-2.24049 -7.31054,-3.54492 -5.1442,-2.14054 -5.68991,-2.65009 -5.58594,-5.24024 0.0631,-1.57984 -0.40763,-3.08907 -1.04883,-3.35742 -0.78247,-0.3273 -0.86634,-0.74431 -0.2539,-1.27148 0.55256,-0.47573 -0.14429,-8.28515 -1.77149,-19.83985 -1.47602,-10.48032 -2.59849,-19.07031 -2.49414,-19.08789 0.48956,-0.0839 15.55219,11.17776 23.51172,17.57813 4.89052,3.93252 11.29826,9.04511 14.23828,11.36328 2.93998,2.31814 6.52602,5.29535 7.9707,6.61523 5.73419,5.23885 18.13822,14.04628 28.57032,20.28711 8.72254,5.21813 11.43073,6.38089 13.15234,5.64649 1.23927,-0.52861 2.8473,-0.44368 3.75586,0.19922 0.8742,0.61859 3.53946,1.91245 5.91992,2.87695 2.38042,0.96442 4.72697,2.17104 5.2168,2.67969 0.55423,0.57543 0.84446,0.54887 0.76562,-0.0684 -0.0843,-0.66165 0.16747,-0.70059 0.75586,-0.11914 0.48522,0.47988 2.5717,1.47175 4.63672,2.20312 2.06502,0.73142 7.35633,2.96674 11.75781,4.96875 4.40145,2.00206 8.34161,3.58552 8.75782,3.51953 0.41616,-0.0661 2.8103,0.92049 5.31836,2.19336 5.3354,2.70781 6.77415,2.83703 3.6582,0.32617 -2.64945,-2.13517 -26.1973,-12.95053 -27.6836,-12.71484 -0.57298,0.0911 -1.11019,-0.27175 -1.19531,-0.80859 -0.085,-0.53666 -3.87156,-2.16177 -8.41406,-3.61133 l -8.25781,-2.63672 3.56445,-2.20117 c 1.96108,-1.21062 5.47244,-2.50383 7.80078,-2.87305 3.54312,-0.56186 5.20373,-0.0999 10.19531,2.83203 3.28018,1.92654 9.94728,6.55451 14.81641,10.28321 7.26758,5.56535 22.3687,13.79514 24.64844,13.43359 1.56824,-0.24869 11.39394,5.62553 13.86133,8.28711 3.33486,3.59709 5.93375,12.267 5.08789,16.96484 -0.73229,4.06685 0.47655,3.98287 2.10742,-0.14453 1.28923,-3.26302 0.83876,-8.67068 -1.18359,-14.21094 -1.62532,-4.45266 -13.86522,-13.03999 -19.70508,-13.82617 -5.40469,-0.72763 -6.27264,-2.20795 -3.61914,-6.16992 2.4534,-3.66316 2.40251,-4.70217 -0.34766,-7.00391 -2.48806,-2.08229 -6.74479,-3.42767 -18.32617,-5.79687 -4.89211,-1.00082 -10.20484,-2.45849 -11.80664,-3.23828 -1.60184,-0.77983 -3.19462,-1.37324 -3.54102,-1.31836 -0.3462,0.0552 -1.71113,-0.62645 -3.03125,-1.51563 -4.46343,-3.00627 -9.87528,-2.43242 -18.2207,1.93164 -7.1164,3.72152 -7.61248,3.85144 -10.21094,2.65235 -1.5021,-0.69313 -4.03654,-1.67766 -5.63086,-2.18555 -3.40267,-1.08389 -17.83004,-11.67791 -18.08398,-13.2793 -0.096,-0.60412 -0.95638,-0.97577 -1.91211,-0.82421 -0.95577,0.15155 -2.43221,-0.52482 -3.28321,-1.50391 -1.53872,-1.77041 -1.37422,-1.80353 29.91407,-6.16016 46.36494,-6.45592 65.37396,-9.386 71.9082,-11.08203 4.21055,-1.093 2.18516,-0.98318 -7.27734,0.39453 -7.49651,1.09149 -13.17676,1.50852 -13.26172,0.97266 -0.082,-0.5156 1.30375,-2.44404 3.07812,-4.28516 8.59522,-8.91851 13.82073,-21.07951 15.02735,-34.96875 1.21534,-13.98984 -4.39212,-37.40695 -12.75977,-53.27734 -4.70215,-8.91833 -17.93439,-25.58181 -24.02344,-30.25391 -2.6426,-2.0276 -7.78753,-8.11455 -10.83398,-12.81836 -3.83958,-5.92841 -5.95775,-14.9165 -5.06445,-21.49023 0.37814,-2.78207 0.48711,-5.20547 0.24023,-5.38477 -0.2468,-0.17915 0.16389,-1.98762 0.91602,-4.01953 0.75205,-2.03191 1.29316,-4.17153 1.20117,-4.75195 -0.0918,-0.58038 0.22034,-2.55077 0.69531,-4.38086 8.87906,-34.21897 14.38101,-76.8535 9.82422,-76.13086 -0.54316,0.0861 -1.06306,-0.31339 -1.1543,-0.88867 -0.0911,-0.57649 0.23699,-0.87749 0.72852,-0.67188 0.49156,0.20565 0.71116,-0.56417 0.48828,-1.70898 -0.29216,-1.50259 0.38238,-2.44219 2.42578,-3.38281 6.80538,-3.13258 9.13424,-9.44681 7.43164,-20.13477 -1.46328,-9.17576 -3.80862,-12.15376 -13.24414,-16.81836 -1.66647,-0.82387 -2.38052,-2.3355 -3.20117,-6.76953 -1.69187,-9.14066 -3.81502,-10.94058 -12.75977,-10.82422 -3.92515,0.0511 -5.95182,-0.61774 -9.34765,-3.08398 -1.78872,-1.29904 -3.28357,-2.10461 -3.87305,-2.13672 z m -22.125,0.51172 c -0.15345,10e-4 -0.19756,0.37972 -0.11328,1.10351 0.12208,1.04777 0.44659,1.59303 0.72265,1.21289 0.27591,-0.38023 0.17571,-1.23658 -0.22265,-1.90429 -0.16517,-0.2767 -0.29473,-0.41276 -0.38672,-0.41211 z m -9.37695,4.95508 c -0.1304,-0.0801 0.0303,1.02176 0.22461,2.61132 0.25814,2.12237 1.43959,6.60625 2.625,9.96289 2.59952,7.36033 3.63151,7.99966 1.44921,0.89844 -3.0494,-9.92137 -4.08105,-13.33905 -4.29882,-13.47265 z m -2.67969,2.01953 c 0.0918,-6.4e-4 0.22335,0.13537 0.38867,0.41211 0.39825,0.66771 0.49672,1.52413 0.2207,1.90429 -0.27628,0.3802 -0.6005,-0.16694 -0.72265,-1.21484 -0.0843,-0.72382 -0.0402,-1.10049 0.11328,-1.10156 z m 0.62695,3.95117 c 0.0919,-6.5e-4 0.2214,0.13537 0.38672,0.41211 0.39825,0.66772 0.49864,1.52413 0.22266,1.9043 -0.27629,0.3802 -0.6005,-0.16691 -0.72266,-1.21485 -0.0843,-0.72379 -0.0402,-1.10049 0.11328,-1.10156 z m 9.51563,2.54101 c -0.15307,10e-4 -0.19952,0.37775 -0.11524,1.10157 0.12208,1.04772 0.44656,1.59497 0.72266,1.21484 0.2759,-0.38023 0.17766,-1.23654 -0.2207,-1.9043 -0.16517,-0.2767 -0.29473,-0.41275 -0.38672,-0.41211 z m -6.63867,2.18164 c -0.18898,-0.0382 -0.22584,0.54985 -0.0645,1.56836 0.21544,1.35814 0.52706,1.87871 0.69336,1.15625 0.1663,-0.72246 -0.0104,-1.8332 -0.39062,-2.46875 -0.0956,-0.15889 -0.17517,-0.24312 -0.23828,-0.25586 z m -6.41797,4.81055 c -0.0843,-0.0186 -0.14849,-0.0168 -0.19141,0.004 -0.28611,0.1378 0.35371,1.17211 1.97656,3.44531 3.03368,4.24916 2.27923,8.98335 -1.74804,10.97852 -1.98626,0.98405 -2.1686,0.85165 -1.83789,-1.33594 0.3273,-2.16568 0.2147,-2.25389 -1.04297,-0.82227 -1.66969,1.90065 -1.55789,3.5551 0.33203,4.92774 3.7926,2.75438 10.52963,-2.54524 9.7207,-7.64649 -0.50407,-3.17832 -3.25801,-7.33277 -5.90039,-8.90039 -0.61917,-0.36723 -1.05582,-0.59455 -1.30859,-0.65039 z m -62.74414,1.80469 c 0.32957,0.014 0.69557,0.26605 1.20312,0.70703 3.22753,2.80417 5.92428,3.55284 13.75391,3.82227 6.74649,0.23206 8.42647,0.66609 10.06054,2.5957 2.77255,3.27403 2.23479,7.24517 -1.14453,8.46094 -1.45391,0.52304 -5.72964,2.31718 -9.50195,3.98828 -5.03913,2.23228 -6.91018,2.7187 -7.05078,1.83203 -0.10545,-0.66375 -1.41687,-1.7572 -2.91602,-2.43164 -1.49915,-0.6745 -2.85195,-2.02014 -3.00586,-2.99024 -0.15382,-0.97006 -1.07043,-2.52321 -2.03515,-3.45117 -2.44657,-2.35324 -2.99348,-7.0933 -1.19922,-10.38086 0.73334,-1.34363 1.16947,-2.00296 1.63476,-2.13086 v 0.002 c 0.0661,-0.0185 0.13277,-0.0261 0.20118,-0.0234 z m 18.66992,7.11328 c -0.22035,0.0174 -0.53144,0.0707 -0.93555,0.15234 -1.07917,0.21808 -3.01759,0.92785 -4.30664,1.57813 -2.29674,1.15851 -2.28366,1.17559 0.63281,0.79687 1.63695,-0.21263 3.57538,-0.9243 4.30664,-1.58007 0.82156,-0.73662 0.9645,-0.9996 0.30274,-0.94727 z m 105.99609,0.16211 c -0.35792,0.0614 -0.7014,1.29649 -2.33008,6.84766 -0.98906,3.37121 -1.71357,6.66699 -1.60937,7.32421 0.27439,1.73015 3.45611,-5.75941 4.23828,-9.97656 0.36586,-1.97032 0.41467,-3.76193 0.11133,-3.98242 -0.17046,-0.12385 -0.28884,-0.23338 -0.4082,-0.21289 z m 5.25977,2.95703 c -0.27855,-0.0174 -0.7978,0.55579 -1.56055,1.92188 -0.8674,1.55345 -1.52602,3.19947 -1.46094,3.6582 0.0639,0.45892 -0.97156,2.55041 -2.30078,4.64648 -1.32933,2.09611 -2.38784,3.99773 -2.35156,4.22657 0.20258,1.27835 4.23959,-3.97931 6.04492,-7.87305 1.6873,-3.63936 2.24127,-6.54159 1.62891,-6.58008 z m -55.80274,0.42578 c -0.15874,0.0996 -0.35596,0.61288 -0.64453,1.57227 -0.7454,2.47889 -2.26709,3.43921 -2.55664,1.61328 -0.0926,-0.58498 -1.0235,-0.2151 -2.11719,0.8418 -1.07323,1.03707 -2.76805,2.01563 -3.76562,2.17382 -0.99746,0.15818 -1.48712,0.66554 -1.08985,1.12696 1.14067,1.32482 7.35273,-0.48839 9.23047,-2.69336 0.93721,-1.10046 1.55216,-2.77653 1.36329,-3.72656 -0.1372,-0.69277 -0.26088,-1.00774 -0.41993,-0.90821 z m -55.91797,0.83203 c -0.67619,0.0273 -1.79485,0.19282 -3.46289,0.47657 -2.87814,0.48949 -4.42826,0.944 -3.44336,1.00976 2.08498,0.1392 2.56165,1.46231 0.90625,2.51758 -0.6322,0.40295 0.14175,0.25164 1.71875,-0.33789 1.57716,-0.58951 3.58339,-1.74937 4.45899,-2.57617 0.84574,-0.79871 0.94926,-1.13536 -0.17774,-1.08985 z m 10.94922,5.09571 c 0.5164,0.0283 0.76235,0.45849 0.89063,1.26758 0.12926,0.81481 -0.41477,1.58334 -1.20703,1.70898 -1.66772,0.26449 -16.35709,20.55354 -20.38282,28.15234 -1.50005,2.83135 -3.72148,6.78416 -4.93554,8.78516 -1.21406,2.00096 -2.1311,4.11305 -2.03906,4.69336 0.0918,0.58031 -0.33155,1.49892 -0.94141,2.04101 -0.61009,0.54206 -1.81055,3.14714 -2.66797,5.78907 -0.8575,2.64192 -1.99481,5.94566 -2.52734,7.34375 l -0.96875,2.54297 -1.13086,-2.88477 c -0.62158,-1.58612 -1.14882,-4.62455 -1.17188,-6.75586 l -0.041,-3.875 -0.86328,3.67969 c -0.47449,2.02431 -0.49525,6.21453 -0.0469,9.3125 v 0.002 c 0.44889,3.098 0.41617,5.97672 -0.0742,6.39844 -0.48994,0.42187 -0.99534,0.18718 -1.12305,-0.52149 -0.12812,-0.70869 -1.18753,-5.2375 -2.35351,-10.06445 -5.47892,-22.68106 -5.66844,-30.48881 -0.91406,-37.83203 3.0836,-4.76274 10.26845,-8.67251 18.41015,-10.01953 2.44188,-0.40396 6.36385,-1.52169 8.7168,-2.48633 2.35291,-0.9646 5.35647,-2.1415 6.67383,-2.61328 1.31731,-0.47186 3.58591,-1.70139 5.03906,-2.73438 1.67316,-1.18954 2.73764,-1.81867 3.41992,-1.91796 0.0853,-0.0124 0.16451,-0.0158 0.23828,-0.0117 z m 41.78516,3.38867 c -0.57524,0.0912 -0.97485,0.60913 -0.88867,1.15234 0.0862,0.54321 0.3542,0.95597 0.59375,0.91797 0.23962,-0.038 0.63926,-0.55591 0.88867,-1.15234 0.24945,-0.59646 -0.0201,-1.0092 -0.59375,-0.91797 z m -39.36914,1.38086 c 1.12581,-0.0884 1.52547,0.81206 0.80078,2.5039 -1.06295,2.48143 -3.4947,3.25778 -4.53906,1.44922 -0.56659,-0.98108 -0.0967,-1.96141 1.42773,-2.9707 0.67707,-0.44824 1.28036,-0.74009 1.78516,-0.88281 0.18935,-0.0535 0.36438,-0.087 0.52539,-0.0996 z m -11.11328,12.77148 c 0.54738,0.0232 1.06959,0.33164 1.41601,0.96875 0.73508,1.35209 -2.50994,8.69868 -3.38086,7.6543 -0.77162,-0.92525 -0.92137,-4.25672 -0.29492,-6.56445 0.29081,-1.07197 0.97883,-1.7712 1.70899,-1.98829 h 0.002 c 0.18208,-0.0537 0.367,-0.078 0.54883,-0.0703 z m 57.99023,6.19727 c 0.42288,0.0412 0.78105,0.36154 0.88477,1.01562 0.13606,0.86008 -0.45634,1.67611 -1.31641,1.8125 -0.86003,0.13637 -1.47212,-0.30908 -1.35937,-0.98828 0.15987,-0.96408 0.75941,-1.60583 1.35351,-1.78906 0.14852,-0.0458 0.29654,-0.0645 0.4375,-0.0508 z m -69.44726,13.37695 c 0.13341,-0.0465 0.3138,0.46386 0.52734,1.51563 0.61538,3.03031 -0.64747,4.72581 -1.90234,2.55273 -1.16376,-2.01505 -1.16248,-2.47405 0.008,-1.98437 0.55128,0.23055 1.08371,-0.39765 1.18164,-1.39454 0.0423,-0.43328 0.10542,-0.66167 0.18555,-0.68945 z m 71.01757,0.37891 c 0.98968,0.0675 1.42954,0.59661 1.61524,1.76758 0.22904,1.44415 -0.15168,1.97755 -1.24219,1.74609 -0.86434,-0.18369 -1.50333,0.0987 -1.41992,0.625 0.0835,0.52611 -0.29256,1.02715 -0.83594,1.11328 -0.54319,0.0862 -1.16355,-0.95444 -1.3789,-2.3125 -0.31333,-1.97529 0.1026,-2.54613 2.07812,-2.85937 0.46313,-0.0734 0.8537,-0.10258 1.18359,-0.0801 z m 4.12305,11.46679 c 1.03434,-0.0529 1.15887,0.65687 1.45703,2.53711 0.48484,3.05719 -0.58608,5.1452 -1.87304,3.65039 -0.38287,-0.44454 -2.26681,-0.33816 -4.1836,0.23633 -3.28694,0.98525 -3.46259,0.90593 -3.13672,-1.38476 0.19011,-1.33588 0.40337,-2.53126 0.47461,-2.65625 0.0714,-0.12473 1.95337,-0.82209 4.1836,-1.55078 1.13227,-0.37002 1.94928,-0.63483 2.54882,-0.75782 0.19994,-0.0412 0.37449,-0.0659 0.5293,-0.0742 z m -82.92383,3.05665 c 0.53911,-0.0457 1.16034,0.25298 1.97071,0.84179 1.1461,0.83256 1.27355,1.72213 0.63281,4.45703 -0.89004,3.79869 -1.37233,4.07787 -4.33008,2.4961 -1.97677,-1.05744 -2.0015,-1.20116 -0.73437,-4.40821 0.8971,-2.27047 1.56231,-3.3101 2.46093,-3.38671 z m 80.70508,6.625 c 1.25957,0.0404 0.28992,0.39361 -2.1543,0.78124 -2.44437,0.38763 -3.47586,0.35319 -2.29101,-0.0762 0.59248,-0.21467 1.38978,-0.39959 2.19531,-0.52734 0.80557,-0.12813 1.62026,-0.19852 2.25,-0.17773 z m -2.57617,7.70507 -1.94141,2.67383 c -1.37748,1.89664 -2.64397,2.61122 -4.35742,2.45899 -1.3285,-0.1183 -2.62047,0.27632 -2.87109,0.875 -0.48745,1.16466 -1.08245,1.32351 -3.15821,0.8457 -1.80181,-0.4148 -2.08711,-3.04833 -0.35937,-3.32227 0.76951,-0.12208 1.48349,-0.7179 1.58398,-1.32422 0.0813,-0.48944 1.39558,-0.99134 3.41211,-1.3496 0.67215,-0.11944 1.42237,-0.22305 2.23047,-0.30469 z m -84.12109,2.04883 c 0.22566,-0.005 0.46338,0.005 0.71289,0.0273 4.3192,0.38401 8.20564,3.18222 10.17968,7.32813 2.36346,4.96377 1.55051,6.07097 -2.71484,3.70313 -1.85295,-1.0286 -5.80207,-2.26195 -8.77539,-2.73829 -2.97335,-0.47629 -5.46285,-1.23736 -5.53516,-1.69336 -0.0722,-0.45603 0.84801,-2.18124 2.04688,-3.83203 1.24702,-1.71832 2.19939,-2.51559 3.43945,-2.73242 v -0.002 c 0.20668,-0.0361 0.42082,-0.0554 0.64649,-0.0606 z m 129.5,0.45899 c 0.46885,0.008 0.6978,1.22939 0.32226,3.66015 -0.33071,2.14073 -1.27379,8.2132 -2.09766,13.49414 -0.82383,5.28095 -1.7348,9.55873 -2.02148,9.50782 -0.28649,-0.051 -2.4357,0.0389 -4.77734,0.19726 -2.34161,0.15836 -4.33155,-0.18008 -4.42188,-0.75 -0.17839,-1.12331 3.23479,-7.65394 7.61133,-14.56836 1.5126,-2.38964 3.13987,-5.95082 3.61719,-7.91406 0.59021,-2.42725 1.29869,-3.63448 1.76758,-3.62695 z m -54.92383,12.02343 c 0.13519,0.0196 0.21735,0.0674 0.23047,0.15039 0.034,0.19843 -0.25343,1.48025 -0.63282,2.84961 -0.93702,3.38249 -3.13477,5.09904 -8.63867,6.75391 -2.55647,0.76868 -5.6191,1.95669 -6.80859,2.63867 -2.64586,1.5171 -2.98995,1.58419 -3.14453,0.60938 -0.27893,-1.75794 4.85467,-8.09365 6.9375,-8.5625 1.24017,-0.27893 2.91468,-0.65935 3.7207,-0.84375 0.80602,-0.18482 2.02594,-0.83694 2.71094,-1.44922 0.94658,-0.84613 3.70852,-1.91914 5.07422,-2.12305 0.22762,-0.034 0.41559,-0.043 0.55078,-0.0234 z m -87.03516,4.41211 c 0.44289,-0.0726 0.91938,0.33315 1.42969,1.2168 0.44462,0.76996 1.14158,1.26683 1.54883,1.10351 1.37839,-0.55333 8.39149,0.0647 8.5,0.74805 0.0593,0.37342 1.83641,1.0119 3.95117,1.41797 2.1148,0.40607 4.38133,1.04193 5.03516,1.41406 0.65375,0.37191 2.76281,1.57263 4.6875,2.66797 1.92465,1.09538 3.88181,1.94566 4.3496,1.89063 1.79146,-0.21317 5.54924,2.79788 7.10157,5.68945 2.35109,4.37926 0.42616,4.04411 -6.87891,-1.19727 -4.22967,-3.03462 -5.72461,-4.6246 -4.87305,-5.18359 0.67556,-0.44353 0.3743,-0.45708 -0.67187,-0.0273 -1.04606,0.42648 -2.63748,0.45388 -3.53516,0.0605 -0.89775,-0.39329 -1.19416,-0.79441 -0.66015,-0.88671 3.19343,-0.55749 -8.54801,-3.07361 -13.92579,-2.98438 -8.06945,0.1338 -8.49946,-0.0496 -7.60742,-3.26953 0.46492,-1.67796 0.97948,-2.56271 1.54883,-2.65625 z m 2.82227,13.29688 c 1.33207,-0.032 2.89398,0.11555 4.45117,0.4707 2.11842,0.48321 2.75338,1.15597 2.5957,2.75195 -0.11603,1.17366 0.2682,2.03774 0.86328,1.94336 0.58957,-0.0934 0.70941,-0.79534 0.26758,-1.56054 -0.44186,-0.76524 -0.31031,-1.4691 0.29102,-1.56446 0.60132,-0.0952 1.22456,0.60332 1.38281,1.55274 0.20372,1.21383 0.46046,1.32648 0.86914,0.38281 0.85085,-1.96501 5.28731,0.4243 5.87109,3.16211 0.34621,1.62338 0.50113,1.71411 0.63477,0.37109 0.16705,-1.67731 0.34026,-1.70653 3.0918,-0.51367 3.83527,1.6628 4.83594,2.79446 3.54882,4.00977 -0.74717,0.70548 -0.63283,0.86035 0.39063,0.52734 2.85396,-0.92829 6.12339,0.309 6.53906,2.47656 0.36359,1.89547 0.46059,1.9207 0.83594,0.22657 0.38113,-1.7209 0.60755,-1.6756 2.20508,0.43164 1.36717,1.80321 1.55013,2.66008 0.79687,3.69726 -0.75337,1.03707 -1.02621,1.063 -1.17773,0.10742 -0.1081,-0.68269 -0.56932,-0.9239 -1.02539,-0.53125 -0.45615,0.3927 -1.18727,0.29867 -1.62305,-0.20703 -0.43582,-0.50729 -1.10491,-0.64607 -1.49023,-0.31445 -0.38499,0.33184 -0.73023,-0.63138 -0.76368,-2.14063 -0.0529,-2.36345 -0.14707,-2.45173 -0.67968,-0.62304 -0.55597,1.90764 -0.65379,1.94326 -0.97071,0.34765 -0.19389,-0.97647 -0.72714,-1.45358 -1.18359,-1.06054 -0.45645,0.39303 -1.68363,-0.17082 -2.72852,-1.25196 -1.27385,-1.31818 -1.83345,-1.48456 -1.70117,-0.50586 0.15421,1.12819 -0.1741,1.10071 -1.44531,-0.11914 -0.90455,-0.86815 -2.01469,-1.49492 -2.4668,-1.39257 -2.1298,0.48105 -4.47942,-0.5226 -4.73242,-2.02149 -0.24038,-1.4318 -0.37657,-1.43737 -1,-0.0273 -0.39734,0.89832 -0.81091,1.13209 -0.91601,0.51758 -0.10621,-0.61433 -1.11853,-1.20856 -2.25,-1.32032 -1.26592,-0.1251 -2.24069,-1.08687 -2.53711,-2.5 -0.3481,-1.66053 -0.53173,-1.7996 -0.66016,-0.49804 -0.22148,2.24511 -2.7682,2.75986 -3.90625,0.78906 -0.68307,-1.18303 -0.97042,-1.18723 -1.47461,-0.0176 -0.47074,1.08964 -0.70198,0.99159 -0.93359,-0.39648 -0.26873,-1.60986 -0.4966,-1.63871 -1.76172,-0.22657 -1.27771,1.42587 -1.40352,1.39046 -1.0586,-0.29687 0.21544,-1.05422 0.30379,-2.47509 0.19532,-3.1582 -0.1149,-0.72598 0.87355,-1.22613 2.41015,-1.42383 v -0.004 c 0.38414,-0.0494 0.80207,-0.0792 1.2461,-0.0898 z m -134.99219,1.3164 v 14.30274 c 0.004,-0.71643 0.004,-1.91482 0.01,-2.47266 0.0432,-4.01652 0.0335,-8.88452 -0.01,-11.83008 z m 263.66211,3.0918 c 3.98997,-0.008 4.98128,0.64873 5.00781,2.41406 0.0151,1.19316 -0.63067,2.30534 -1.43945,2.47266 -4.72233,0.97735 -15.91993,1.75977 -16.02149,1.11914 -0.0661,-0.417 0.60138,-1.82874 1.48243,-3.13672 0.95187,-1.41195 1.87923,-2.07719 3.72265,-2.41406 0.61448,-0.11225 1.33097,-0.18701 2.1836,-0.24219 2.07169,-0.13386 3.73446,-0.21029 5.06445,-0.21289 z m -129.21289,4.15234 c 0.37935,-0.0435 0.97593,0.0197 1.79492,0.23438 1.04186,0.27326 2.12299,0.50996 2.4043,0.52734 1.96546,0.12284 7.41335,2.05609 7.50976,2.66407 0.065,0.41064 -0.22325,0.74653 -0.64062,0.74804 -2.77002,0.0113 -4.38137,-0.49859 -4.5293,-1.43164 -0.0941,-0.59406 -0.40691,-0.75572 -0.69336,-0.36133 -0.28649,0.39447 -1.94611,0.24196 -3.68945,-0.33593 -2.49317,-0.8261 -3.29434,-1.91423 -2.15625,-2.04493 z m 13.00781,3.17774 c 0.2075,-0.008 0.53283,0.14128 0.94336,0.43945 0.74544,0.54074 1.16001,1.24704 0.92383,1.57227 -0.55465,0.76373 -1.90811,-0.21889 -2.11719,-1.53711 -0.0491,-0.30917 0.0421,-0.46815 0.25,-0.47461 z m -9.23828,1.25976 c 0.0427,-0.059 0.49046,0.17413 1.37109,0.66407 1.06885,0.59478 1.96945,1.25015 2.00196,1.45508 0.12888,0.81283 -0.76326,0.41908 -2.31446,-1.02149 -0.73844,-0.68587 -1.10145,-1.03858 -1.05859,-1.09766 z m 14.95508,1.01368 c 0.12132,0.001 0.2591,0.0344 0.4082,0.0937 0.59645,0.24945 1.11631,0.64901 1.1543,0.88867 0.0382,0.23962 -0.37673,0.50757 -0.91992,0.59375 -0.5432,0.0862 -1.06111,-0.31534 -1.15235,-0.89063 -0.0684,-0.43132 0.14629,-0.68887 0.50977,-0.68554 z m -10.03321,0.58007 c 0.12133,10e-4 0.25914,0.0325 0.40821,0.0918 0.59644,0.24945 1.11627,0.651 1.15429,0.89063 0.0382,0.23962 -0.37669,0.50566 -0.91992,0.59179 -0.54315,0.0862 -1.0611,-0.31534 -1.15234,-0.89062 -0.0684,-0.43132 0.14633,-0.68692 0.50976,-0.6836 z m 13.05079,0.92188 c 0.15193,-0.0401 0.49585,0.01 1.03515,0.12305 0.94587,0.20107 1.78055,0.76099 1.85742,1.24609 0.20183,1.27003 -0.39762,1.18377 -2.09179,-0.30469 -0.77696,-0.6825 -1.05379,-0.99782 -0.80078,-1.06445 z m -7.09961,0.91016 c 0.5378,0.0639 1.10949,0.33156 1.42578,0.69921 0.95225,1.10605 0.60947,1.15953 -1.48242,0.23438 -0.98151,-0.43408 -1.16455,-0.80624 -0.45899,-0.92578 0.16142,-0.0277 0.33636,-0.0291 0.51563,-0.008 z m 116.42382,3.8789 c 0.60772,-0.0482 1.36266,5.26636 0.95118,7.20508 -0.35679,1.68042 -1.28943,2.24506 -2.39063,1.44531 -0.33298,-0.24189 -2.81232,-0.31518 -5.50976,-0.16211 -6.94855,0.39379 -8.29963,0.0516 -9.16797,-2.33593 l -0.76563,-2.10938 0.2168,2.24219 c 0.25776,2.65685 -1.30189,3.24203 -2.33789,0.87695 -0.65496,-1.49492 -0.70787,-1.47408 -0.54883,0.19727 0.11981,1.25816 -0.35559,1.7392 -1.48242,1.5 -0.91151,-0.19351 -2.73326,-0.18053 -4.04688,0.0273 -1.62194,0.25739 -2.47153,-0.17789 -2.64648,-1.35352 -0.19994,-1.33667 -0.0188,-1.45988 0.79297,-0.5371 0.77764,0.88289 1.11411,0.5003 1.28906,-1.46875 0.13039,-1.46578 0.89666,-2.76889 1.70117,-2.89649 0.80444,-0.12775 1.39221,-0.6731 1.30664,-1.21289 -0.0642,-0.40581 0.45914,-0.74012 1.25586,-0.86719 0.2657,-0.0423 0.56238,-0.0614 0.87696,-0.0527 1.25836,0.034 3.736,-0.13343 5.50781,-0.37305 2.37313,-0.32088 3.29863,0.0178 3.51172,1.28906 0.24756,1.47746 0.39586,1.49013 1.02734,0.0899 0.65563,-1.45395 0.87005,-1.4883 1.94336,-0.3086 0.6641,0.72994 1.13608,0.81807 1.04492,0.19532 -0.11301,-0.77995 0.93568,-1.06325 3.36524,-0.90625 1.94101,0.1251 3.73502,-0.0544 3.98632,-0.40039 0.0388,-0.0535 0.0786,-0.0808 0.11914,-0.084 z m -6.78515,3.29688 c -0.15185,0.004 -0.19729,0.38018 -0.11328,1.10156 0.12208,1.0478 0.44656,1.59495 0.72265,1.21484 0.27591,-0.38026 0.17766,-1.23852 -0.2207,-1.90625 -0.16446,-0.27586 -0.29479,-0.40964 -0.38672,-0.41015 z m 5.0957,0.20508 c -0.15345,10e-4 -0.19756,0.37774 -0.11328,1.10156 0.12208,1.0481 0.44656,1.59303 0.72266,1.21289 0.2759,-0.38026 0.17766,-1.23653 -0.22071,-1.9043 -0.16516,-0.27704 -0.29668,-0.4108 -0.38867,-0.41015 z m -10.0332,0.57812 c -0.15345,10e-4 -0.19757,0.37775 -0.11328,1.10156 0.12208,1.04776 0.4466,1.59499 0.72265,1.21485 0.27591,-0.38026 0.17766,-1.23849 -0.2207,-1.90625 -0.16517,-0.27704 -0.29672,-0.4108 -0.38867,-0.41016 z m -9.87696,1.56641 c -0.15304,0.001 -0.19756,0.37774 -0.11328,1.10156 0.12208,1.04776 0.44657,1.59503 0.72266,1.21484 0.27591,-0.38022 0.17766,-1.23848 -0.2207,-1.90625 -0.16517,-0.27704 -0.29668,-0.4108 -0.38868,-0.41015 z m 18.35157,4.9707 c 4.2202,0.005 4.39498,1.40632 5.58984,6.13086 0.81419,3.21951 2.07765,6.37721 2.80664,7.01758 1.08779,0.95561 0.0542,1.4875 -5.76562,2.96484 -5.55583,1.41052 -8.71382,2.96598 -14.58985,7.18359 -4.12463,2.96058 -7.44356,5.73563 -7.375,6.16797 0.0688,0.43219 -0.352,0.86286 -0.93359,0.95508 -1.18216,0.18747 -9.62315,9.42604 -10.54883,11.54492 -0.71875,1.64519 -2.07635,1.96169 -3.13476,0.73243 -0.42875,-0.49788 -1.1533,-0.58388 -1.60938,-0.19141 -0.45615,0.39281 -0.89539,0.30629 -0.97461,-0.19336 -0.079,-0.49954 -3.15408,-1.93591 -6.83398,-3.19336 -3.67983,-1.25745 -7.02618,-2.65126 -7.4375,-3.09766 -0.41152,-0.44647 -1.02979,-0.7208 -1.37305,-0.60742 -0.34356,0.11301 -2.00095,-0.25115 -3.68359,-0.80859 -1.68261,-0.55763 -3.29363,-0.69131 -3.58008,-0.29688 -0.28687,0.39447 -0.59868,0.22998 -0.69336,-0.36718 -0.0949,-0.59717 -1.21902,-1.22028 -2.49805,-1.38477 -4.29479,-0.55294 -11.34501,-2.90217 -11.49219,-3.83008 -0.0801,-0.50555 -1.53521,-2.50358 -3.23437,-4.43945 -1.69916,-1.93591 -3.16327,-3.98905 -3.25391,-4.56055 -0.10998,-0.69256 3.40221,-1.4383 10.5293,-2.23828 29.4805,-3.30981 31.30716,-3.91055 38.11719,-12.52734 2.15251,-2.72364 3.13684,-3.85388 3.86523,-3.95899 0.43703,-0.0627 0.7816,0.24209 1.23242,0.79492 0.7894,0.96787 1.24855,1.09494 1.14453,0.31836 -0.10617,-0.78655 0.35937,-1.07007 1.18165,-0.72265 1.4993,0.63356 2.21973,0.60058 15.80664,-0.71485 4.06539,-0.39359 6.82,-0.68013 8.73828,-0.67773 z m 4.23047,17.85742 c 0.80031,-0.096 1.20388,0.20608 1.86132,0.68359 1.83179,1.33032 1.66125,1.44663 -5.78125,3.92188 -1.58687,0.52781 -3.57142,1.35885 -4.41211,1.84766 -0.84065,0.48869 -1.90184,0.45843 -2.35546,-0.0684 -0.45358,-0.52683 -0.26953,-1.2443 0.40625,-1.59375 6.51734,-3.37043 8.94726,-4.63148 10.28125,-4.79102 z m -94.64844,1.83008 c 1.58145,-0.0247 2.67358,0.0889 2.89453,0.3457 0.4419,0.51319 1.18442,0.60642 1.64844,0.20703 0.79495,-0.68443 5.04799,4.54141 5.375,6.60352 0.0835,0.5249 -0.19024,0.95552 -0.60742,0.95703 -2.45719,0.0113 -4.37338,-0.44315 -4.47071,-1.05664 -0.0616,-0.38778 -0.90018,-0.64656 -1.86328,-0.57422 -0.96298,0.0722 -3.65145,-0.36332 -5.97461,-0.9668 -2.3232,-0.60336 -4.68605,-1.13287 -5.25,-1.17773 -0.56398,-0.045 -2.90983,-0.47086 -5.21289,-0.94727 -3.63738,-0.75223 -4.03912,-1.13522 0.8711,-1.9375 1.63673,-0.26721 3.86405,-0.58058 6.75781,-0.9707 2.17835,-0.29365 4.25058,-0.45772 5.83203,-0.48242 z m -38.57422,1.9668 c 3.06043,0.0483 5.91562,0.26404 8.28516,0.65234 2.00107,0.32769 3.869,0.61114 4.15039,0.62891 3.7454,0.23811 10.06875,1.30533 11.01757,1.85937 0.67023,0.3916 1.45621,0.38502 1.7461,-0.0117 0.29027,-0.3993 0.90771,-0.0676 1.37305,0.73828 0.50649,0.87825 1.43703,1.12568 2.31445,0.61914 0.96419,-0.55676 1.28498,-0.41563 0.93945,0.41016 -0.34356,0.82076 -0.0261,0.96695 0.91406,0.42383 0.83657,-0.48314 1.52471,-0.30342 1.64063,0.42773 0.10961,0.69139 0.41584,0.96095 0.67969,0.59766 0.26381,-0.36321 2.938,-0.0271 5.9414,0.74805 7.48963,1.93247 9.47362,2.3801 10.83985,2.45312 2.49838,0.13342 24.13941,6.22178 24.57031,6.91211 0.2502,0.4015 0.82342,0.41303 1.27148,0.0293 0.44814,-0.38582 0.89194,-0.20529 0.98829,0.40234 0.0963,0.60726 0.57642,0.75969 1.0664,0.33789 0.48994,-0.42187 0.9654,-0.29595 1.05664,0.2793 0.0911,0.57521 0.48282,0.89223 0.8711,0.70703 0.66168,-0.31597 6.53481,1.724 15.26953,5.30469 2.08456,0.85455 5.22926,2.00145 6.98633,2.54687 1.75707,0.54539 7.36367,2.86978 12.46093,5.16407 5.0973,2.29433 10.61145,4.73568 12.25196,5.42382 1.64269,0.68905 3.12253,2.13766 3.29492,3.22461 0.19389,1.22291 1.4141,2.23427 3.20703,2.66211 9.94983,2.37438 10.84348,2.79274 13.43945,6.29492 1.47742,1.99321 4.01498,5.23538 5.64063,7.20508 1.62565,1.96966 3.11399,4.34513 3.30664,5.27735 0.19275,0.93222 2.04403,4.93687 4.11328,8.90039 3.23229,6.19124 3.99938,8.80287 5.45117,18.52929 1.41207,9.46103 1.45966,12.62345 0.29492,19.25391 -1.48713,8.46493 -2.64495,10.94953 -8.47461,18.17383 l -3.69922,4.58398 -11.38281,1.61524 c -11.64544,1.65309 -17.16844,1.44574 -19.65234,-0.73633 -0.77205,-0.67831 -1.7589,-0.92503 -2.19336,-0.55078 -0.43442,0.37417 -0.8542,0.27895 -0.93164,-0.20899 -0.0771,-0.48805 -1.45131,-1.24812 -3.05274,-1.68945 -1.60134,-0.44137 -5.73703,-2.13499 -9.1914,-3.76563 -3.4543,-1.63063 -6.55285,-2.92347 -6.88281,-2.87109 -0.32996,0.0525 -3.71007,-1.84865 -7.51368,-4.22461 -3.8036,-2.37585 -7.6917,-4.60614 -8.64062,-4.95703 -1.66409,-0.61531 -9.74628,-5.42818 -17.06836,-10.16211 -9.20633,-5.95234 -30.46085,-21.66634 -33.25781,-24.58984 -2.34358,-2.44959 -3.38692,-4.6363 -4.14063,-8.66993 -1.7958,-9.60907 -6.41757,-18.76673 -13.71289,-27.17187 -8.5223,-9.81857 -10.73053,-10.1694 -3.90039,-0.61914 10.06352,14.07152 15.31512,30.82573 17.75586,56.64062 0.57059,6.03508 1.25276,13.44571 1.51562,16.4668 3.21948,36.9868 6.12994,55.34856 9.78516,61.72852 1.46238,2.55243 3.24983,5.23019 3.9707,5.95117 3.27447,3.27511 6.057,8.12099 6.1875,10.77539 0.0892,1.81361 1.72873,5.04769 4.36914,8.62305 4.23784,5.73842 7.33336,14.11487 7.75391,20.98242 0.16668,2.72156 -0.20858,3.32418 -2.26562,3.65039 -4.16085,0.65979 -11.12107,3.99611 -16.32813,7.82617 -2.72844,2.00708 -5.20201,3.68774 -5.49609,3.73438 -0.94549,0.14966 -5.41435,-7.53121 -8.38672,-14.41407 -3.20251,-7.41573 -7.22931,-21.90524 -11.84571,-42.62109 -3.18622,-14.29829 -9.35328,-35.00722 -13.82031,-46.4082 -2.59835,-6.63164 -5.15535,-12.62575 -16.15234,-37.84571 -3.15885,-7.24433 -6.32681,-15.39873 -7.03906,-18.12109 -0.7121,-2.72243 -2.33091,-8.88631 -3.59766,-13.69727 -1.38652,-5.26586 -3.87196,-11.5196 -6.24414,-15.71484 -3.5379,-6.25671 -4.14429,-8.23209 -5.91602,-19.33203 l -1.97656,-12.36524 2.85938,-6.25195 c 2.59317,-5.67356 3.6237,-6.86564 5.94531,-6.86719 0.41756,-3e-4 0.70072,-0.36955 0.6289,-0.82226 -0.15606,-0.98317 0.9647,-1.28487 10.90626,-2.94336 v -0.006 c 4.93367,-0.82297 10.6024,-1.20752 15.70312,-1.12695 z m 133.51758,2.87109 c 0.73653,-0.0212 0.62321,0.25341 -0.1875,0.98047 -1.74637,1.56601 -4.03473,1.92953 -3.45703,0.54883 0.24945,-0.59645 1.42779,-1.2328 2.61914,-1.41407 0.44029,-0.0667 0.77988,-0.10816 1.02539,-0.11523 z m -14.42774,0.20117 c 0.57521,-0.0911 0.8432,0.32149 0.59375,0.91797 -0.24945,0.59649 -0.64905,1.11628 -0.88867,1.1543 -0.23962,0.0382 -0.50761,-0.37673 -0.59375,-0.91992 -0.0862,-0.54324 0.31351,-1.06111 0.88867,-1.15235 z m 26.34375,1.00977 c 0.34545,-0.0401 0.65169,0.003 0.8418,0.14062 0.38015,0.27591 -0.16479,0.60242 -1.21289,0.72461 -1.15812,0.13531 -1.42925,-0.0616 -0.69141,-0.50195 0.33374,-0.19918 0.71713,-0.32284 1.0625,-0.36328 z m -18.7207,1.00195 c 0.49765,-0.0265 0.59899,0.15699 0.31836,0.55078 -0.45543,0.63931 -2.78305,1.76573 -5.17187,2.50391 -5.38372,1.66322 -3.49905,-0.37486 2.16015,-2.33594 1.30069,-0.45071 2.19563,-0.69101 2.69336,-0.71875 z m 21.73242,2.48633 c 1.98258,0.0964 4.78549,2.97286 3.89063,4.20508 -0.28876,0.39753 -4.56752,1.66482 -9.50782,2.8164 -10.56473,2.46282 -23.32489,6.95788 -28.08203,9.89453 -4.26213,2.63108 -4.35507,2.64199 -7.52734,0.75196 -2.06438,-1.22994 -2.28856,-1.63486 -1.0293,-1.86133 0.88566,-0.15912 2.67874,-1.07927 3.98438,-2.04297 1.30564,-0.9637 4.40042,-1.98788 6.87695,-2.27539 2.63259,-0.30576 3.92139,-0.77417 3.10547,-1.12695 -0.83036,-0.35906 0.79481,-1.0165 4.01172,-1.625 9.17733,-1.73617 16.52671,-4.32024 16.30273,-5.73243 -0.0847,-0.53564 1.20943,-0.98865 2.87696,-1.00781 1.66756,-0.0189 2.97355,-0.40435 2.90234,-0.85351 -0.0711,-0.44924 0.7452,-0.9538 1.8125,-1.12305 0.12354,-0.0196 0.25064,-0.026 0.38281,-0.0195 z m -186.22265,2.20117 c 1.19208,0.0365 1.31039,1.10862 0.65625,4.23828 -0.70428,3.3696 -4.73746,8.4695 -6.41602,8.11328 -0.72212,-0.15345 -1.5282,0.24183 -1.79492,0.87891 -0.26646,0.63711 -1.71951,1.35481 -3.22656,1.59375 -3.46538,0.54958 -4.31352,1.67087 -2.11524,2.79883 1.51646,0.77816 1.52609,1.20312 0.0801,3.79297 -0.89529,1.60331 -1.5511,3.39887 -1.45703,3.99218 0.43015,2.71227 -1.67538,0.97307 -2.73047,-2.25586 -1.40818,-4.30949 -1.2239,-7.98199 0.54492,-10.82812 1.50573,-2.42287 10.98313,-9.47771 13.20508,-9.83008 0.83029,-0.13153 1.43766,-0.68532 1.35156,-1.22851 -0.0862,-0.54324 0.50943,-1.09348 1.32422,-1.22266 0.21496,-0.0341 0.40783,-0.0482 0.57813,-0.043 z m 188.56445,9.6582 c 0.12356,0.0456 0.22028,0.25164 0.28125,0.61329 0.13568,0.7934 1.09028,0.94521 2.61328,0.4121 1.4482,-0.50683 2.48018,-0.37871 2.59961,0.32618 0.13228,0.77057 0.41547,0.66554 0.83594,-0.3086 0.45105,-1.04473 0.88776,-1.1835 1.49804,-0.47461 0.47381,0.55026 1.23534,0.67965 1.69141,0.28711 0.45615,-0.39269 0.89829,-0.27869 0.98242,0.25196 0.0843,0.53075 0.53414,1.62471 1,2.43164 0.55601,0.96279 0.30125,1.55358 -0.74023,1.71875 -0.87296,0.13833 -1.6557,-0.17495 -1.73828,-0.69532 -0.0847,-0.53453 -1.94095,-0.43462 -4.26563,0.22657 -2.2645,0.64441 -6.7595,1.74987 -9.98828,2.45898 -3.22874,0.70927 -6.93441,1.76805 -8.23437,2.34961 -1.29994,0.58137 -4.43545,1.63267 -6.96875,2.33789 -4.56609,1.2714 -4.60965,1.2585 -4.95899,-1.57422 -0.35225,-2.85645 -0.35204,-2.85671 0.83008,-0.51367 l 1.18164,2.34375 -0.21289,-2.49805 c -0.1183,-1.37333 0.1034,-1.9598 0.49609,-1.30273 0.44009,0.73614 1.09957,0.79566 1.7168,0.15234 1.37148,-1.429 10.53564,-4.91381 15.90234,-6.04687 2.42476,-0.51186 4.66362,-1.4267 4.97657,-2.03321 0.1319,-0.25474 0.25764,-0.4062 0.36914,-0.45507 0.0464,-0.0204 0.0916,-0.023 0.13281,-0.008 z m -190.27344,2.75977 c 0.94435,-0.034 1.38735,1.40875 1.57617,4.51367 0.42977,7.06583 0.32218,7.18091 -2.57226,2.6875 -2.40631,-3.73576 -2.53243,-4.27373 -1.29883,-5.58398 0.98215,-1.04308 1.7283,-1.59674 2.29492,-1.61719 z m -5.96094,4.44336 c 1.29325,-0.20523 7.78917,10.24617 8.32227,13.39062 0.32391,1.90738 -2.17121,4.85281 -6.58789,7.7793 -1.89388,1.25492 -3.65225,2.45522 -3.9082,2.66797 -0.25588,0.21279 -1.40474,-2.22442 -2.55274,-5.41797 -1.80306,-5.01607 -1.92538,-6.23716 -0.89648,-8.9707 0.65507,-1.74032 1.45659,-3.20914 1.78125,-3.26367 0.32428,-0.0548 1.56947,1.56597 2.76758,3.60351 1.19811,2.03747 2.6592,3.62821 3.24609,3.53516 1.32393,-0.20977 0.74451,-4.4226 -0.75781,-5.51367 -1.83179,-1.33044 -2.96042,-7.56534 -1.41407,-7.81055 z m 201.83008,0.90039 c 0.57513,-0.0915 0.84125,0.32145 0.5918,0.91797 -0.24945,0.59645 -0.64897,1.11631 -0.88867,1.1543 -0.23962,0.0381 -0.50758,-0.3767 -0.59375,-0.91993 -0.0862,-0.54319 0.31538,-1.0611 0.89062,-1.15234 z m -9.33203,2.27539 c 0.33324,0.0326 0.54164,0.1324 0.56836,0.30078 0.0711,0.44931 -1.20436,1.02867 -2.83398,1.28711 -1.62962,0.25852 -2.99018,0.29803 -3.02344,0.0879 -0.034,-0.21014 1.24235,-0.78942 2.83398,-1.28711 0.39799,-0.12434 0.78229,-0.22059 1.13477,-0.28711 0.52875,-0.1 0.98707,-0.13416 1.32031,-0.10156 z m 21.50586,5.60547 c 1.47147,0.0764 3.44233,1.58587 3.70898,3.26758 V 535 c 0.22678,1.42972 -2.57984,1.95722 -12.78124,2.4043 -3.04166,0.13341 -6.39859,0.5736 -7.46094,0.98047 -1.06228,0.40701 -3.10284,0.47778 -4.53321,0.15429 -2.54743,-0.57611 -2.55546,-0.59793 -0.3789,-1.00586 1.22211,-0.22904 2.84361,-1.42618 3.60156,-2.66015 0.84242,-1.37159 1.59521,-2.14392 2.13281,-2.28516 0.53757,-0.14098 0.86042,0.34949 0.84375,1.50391 -0.0189,1.42242 0.98504,1.61969 5.83399,1.15039 5.30729,-0.51383 5.77144,-0.72421 4.90234,-2.23828 -0.75987,-1.32367 -0.66696,-1.46194 0.45117,-0.65625 0.96666,0.69649 1.7421,0.64388 2.45703,-0.16993 0.29808,-0.33929 0.73217,-0.47274 1.22266,-0.44726 z m -20.60547,2.64844 c 0.55512,0.0662 0.98621,0.35817 1.05078,0.76562 0.0862,0.54327 -0.51134,1.09344 -1.32617,1.22266 -0.81475,0.12926 -1.55058,-0.20906 -1.63672,-0.75196 -0.0862,-0.54326 0.50943,-1.09347 1.32422,-1.22265 0.20371,-0.0323 0.40285,-0.0357 0.58789,-0.0137 z m -183.99023,5.5332 c 0.51458,0.1054 0.94204,1.09851 1.88086,3.2832 1.52934,3.55911 1.44739,6.50676 -0.14844,5.34766 -0.32202,-0.23395 -3.56524,-0.0387 -7.20508,0.43555 -3.63983,0.47486 -6.65986,0.59043 -6.71289,0.25586 -0.0533,-0.33449 1.82086,-1.78027 4.16602,-3.2129 2.34512,-1.43266 5.14429,-3.55631 6.2207,-4.71875 0.73209,-0.79056 1.19221,-1.28549 1.57031,-1.38281 v 0.002 c 0.0788,-0.0203 0.15501,-0.0248 0.22852,-0.01 z m 193.72461,1.13281 c 0.23963,-10e-4 0.45491,0.0177 0.63281,0.0586 v -0.002 c 0.71157,0.16441 -0.0434,0.49265 -1.67578,0.73242 -1.63283,0.23811 -2.21423,0.10407 -1.29297,-0.29882 0.46065,-0.20107 1.02636,-0.35134 1.56445,-0.42969 0.26907,-0.0391 0.53186,-0.0592 0.77149,-0.0605 z m 13.17578,5.90039 c 0.75298,0.0348 1.32212,0.30555 1.38672,0.71289 0.0862,0.54327 -0.48477,1.08874 -1.26758,1.21289 -0.7827,0.12397 -1.7677,-0.17382 -2.18945,-0.66406 -0.42184,-0.48998 0.1491,-1.03751 1.26757,-1.21484 0.27963,-0.0444 0.55175,-0.0585 0.80274,-0.0469 z m 5.68945,0.12696 c 0.54739,-0.034 0.75314,0.54072 0.94922,1.77734 0.20561,1.29683 -0.34478,2.07974 -1.60352,2.2793 -2.74892,0.43596 -3.68207,-1.15515 -1.60156,-2.73243 0.92138,-0.69849 1.55285,-1.12752 2,-1.27148 0.0934,-0.0302 0.17763,-0.0474 0.25586,-0.0527 z m -11.90039,0.98632 c 0.90953,-0.005 1.3498,0.20617 1.17773,0.61719 -0.24941,0.59634 -0.5462,1.04578 -0.66015,0.99805 -0.11377,-0.048 -1.59372,-0.21462 -3.28906,-0.3711 -3.04513,-0.28044 -3.03789,-0.29354 0.66015,-0.99804 0.8515,-0.16229 1.56561,-0.24329 2.11133,-0.2461 z m -203.22656,3.68946 c 6.73515,-0.11037 10.90282,0.84574 9.87305,2.26367 -0.23547,0.32466 0.12664,1.07626 0.80468,1.67187 0.67809,0.59566 1.59701,3.45287 2.04492,6.34961 1.48661,9.63394 8.74883,30.10179 12.49219,35.20899 0.58496,0.7982 1.62963,3.0751 2.32227,5.05859 0.69244,1.98354 2.89235,6.86646 4.89062,10.85352 1.99831,3.98706 3.68826,7.58993 3.75391,8.0039 0.21279,1.34185 -1.28681,0.97686 -5.7168,-1.38867 -2.38983,-1.27619 -4.93232,-2.22716 -5.65039,-2.11328 -0.71803,0.11376 -1.37672,-0.23806 -1.46289,-0.78125 -0.0862,-0.54323 -0.78514,-0.8877 -1.55469,-0.76562 -0.76955,0.12204 -1.60421,-0.10643 -1.85351,-0.50782 -0.24907,-0.4015 -4.20501,-2.84406 -8.79102,-5.42578 -9.41605,-5.30101 -22.30793,-14.72536 -23.56055,-17.22461 -0.45733,-0.91249 -1.19771,-1.60211 -1.64453,-1.53125 -1.37446,0.21808 -5.95108,-7.39033 -7.41406,-12.32617 -0.76244,-2.57223 -1.20492,-6.70931 -0.98242,-9.19141 0.32882,-3.66716 1.13456,-5.15453 4.30078,-7.93554 2.14314,-1.88236 3.84511,-3.74603 3.7832,-4.14258 -0.0616,-0.39647 1.5076,-1.90014 3.48633,-3.33984 2.01861,-1.46877 3.21055,-2.12868 5.41602,-2.44336 1.32329,-0.1886 3.01186,-0.25291 5.46289,-0.29297 z m -30.25195,3.98828 c -0.13947,0.0189 -0.31916,0.15096 -0.54102,0.34179 -0.4684,0.40332 -0.95486,3.50369 -1.08008,6.88868 -0.15307,4.13435 -0.57878,5.76985 -1.29492,4.98242 -0.63685,-0.70001 -0.5451,0.58119 0.22656,3.17969 0.84216,2.83547 0.89655,3.94403 0.15625,3.18359 -0.77295,-0.79374 -1.03334,1.83824 -0.8125,8.22852 0.70621,20.43458 0.50129,31.10189 -0.59179,30.64453 -0.60843,-0.25437 -1.73605,0.72116 -2.50586,2.16797 -1.93818,3.64274 -2.727,2.58171 -1.40821,-1.89454 2.79239,-9.47769 4.69302,-22.00726 3.30469,-21.7871 -0.23698,0.0378 -0.6354,2.03742 -0.88281,4.44335 -0.24718,2.40598 -1.43981,8.30649 -2.65039,13.11133 -1.21055,4.80488 -1.86203,8.98198 -1.44727,9.28321 1.68227,1.22173 4.61553,0.45087 4.78516,-1.25782 0.16327,-1.64591 0.20664,-1.6551 0.55859,-0.11914 0.20977,0.91529 -0.61874,2.64146 -1.8418,3.83594 -5.2964,5.17274 -6.5776,6.66586 -6.04492,7.05273 0.31144,0.2264 1.67759,-0.6488 3.03516,-1.94726 4.9519,-4.73658 4.96393,-4.73928 4.86914,-0.4375 -0.10772,4.89203 -2.67127,22.35514 -4.01758,27.36328 -1.07754,4.00842 -7.30532,37.8355 -7.58398,41.19531 -0.47876,5.77229 2.1966,-4.93165 4.74218,-18.97656 1.55876,-8.60031 3.79526,-20.11871 4.97266,-25.5957 1.17736,-5.47703 2.6193,-15.27294 3.20313,-21.76953 0.58382,-6.49663 1.26606,-12.07247 1.51562,-12.39063 0.24983,-0.31824 0.34757,-1.70086 0.2168,-3.07227 -0.74672,-7.8192 -0.93719,-28.85123 -0.26953,-29.77343 0.4326,-0.59766 0.61454,-2.2224 0.40625,-3.60938 -0.20901,-1.38686 0.0455,-6.91665 0.5625,-12.28906 0.86532,-8.97721 1.02304,-11.06213 0.41797,-10.98242 z m 239.35546,2.81836 c 5.91162,-0.0415 9.70405,1.13394 10.03125,3.19726 v 0.002 c 0.14136,0.8903 -2.19896,1.41026 -3.16992,0.70507 -0.3617,-0.26305 -1.50076,-0.50258 -2.53125,-0.5332 -1.03037,-0.0302 -1.88818,-0.14795 -1.90625,-0.26172 -0.0189,-0.11376 -2.40817,0.0955 -5.31055,0.46289 -4.7249,0.59887 -7.22525,-0.20277 -7.64648,-2.45117 -0.0302,-0.14891 0.84455,-0.33951 2.27148,-0.52539 1.42693,-0.18633 3.41064,-0.3682 5.60352,-0.50195 0.92714,-0.0565 1.81369,-0.0878 2.6582,-0.0937 z m -245.33007,0.87695 c -0.54807,0.0151 -0.80992,1.96072 -2.14844,12.05274 -1.26758,9.55752 -11.01974,45.94392 -13.69141,51.08593 -1.09277,2.1032 -3.13662,-0.75627 -2.84961,-3.98633 0.12208,-1.37121 0.0102,-2.46059 -0.24609,-2.41992 -0.88233,0.13985 -3.41869,19.27878 -3.15234,23.78711 0.14661,2.48266 0.11608,5.22133 -0.0684,6.08594 -0.18482,0.8646 -0.25484,3.38216 -0.1543,5.59375 0.10053,2.21155 0.0189,10.19814 -0.18555,17.74805 -0.37266,13.90643 0.57217,35.41521 1.58985,36.15429 0.30538,0.22186 0.84322,-0.28243 1.19336,-1.11914 0.52313,-1.25023 1.36314,-1.42217 4.71679,-0.9707 5.50893,0.74166 9.35751,0.0223 13.47852,-2.52344 4.83995,-2.98783 6.60459,-2.3777 6.67969,2.3125 0.034,2.07288 -0.097,4.7057 -0.28711,5.84961 -0.23622,1.41853 0.0106,1.21703 0.77734,-0.63086 1.42915,-3.44715 0.5176,-10.08034 -1.44141,-10.49609 -0.79687,-0.16895 -3.81385,0.8062 -6.70508,2.16797 -4.53978,2.1383 -6.03675,2.4185 -10.97656,2.0664 l -5.71875,-0.40625 -0.65039,-8.00781 c -0.94242,-11.62859 -1.34804,-30.05697 -0.80859,-36.7168 0.57721,-7.12641 1.01481,-5.36001 1.42383,5.75196 0.97591,26.50907 1.16273,27.94272 1.99218,15.35156 0.95097,-14.43583 2.8057,-25.59088 3.75977,-22.61719 0.38256,1.19233 1.04645,2.11119 1.47656,2.04297 0.43004,-0.0684 0.38522,-1.21973 -0.0976,-2.55859 -1.34491,-3.7287 -2.85616,-1.99365 -4.21875,4.83789 -1.49269,7.48365 -1.80575,5.95671 -2.0586,-10.12696 -0.11112,-7.04277 -0.58813,-12.30956 -1.11133,-12.22656 -0.93547,0.14854 -1.00464,-3.09706 -0.22265,-10.46094 0.54546,-5.13792 2.28665,-3.56667 2.58398,2.33204 0.12359,2.45257 1.04807,5.50553 2.23828,7.39843 2.73536,4.35013 9.18267,10.6951 10.63477,10.46485 0.6463,-0.10243 -0.40319,-1.41789 -2.33203,-2.92188 -3.50748,-2.73475 -9.17707,-10.89342 -9.65235,-13.89062 -0.1387,-0.87459 2.62576,-10.56885 6.14454,-21.54297 3.51878,-10.97409 6.9735,-22.5485 7.67578,-25.72266 1.81734,-8.21423 3.60884,-22.9685 2.85546,-23.51562 -0.17345,-0.12624 -0.31471,-0.22568 -0.4414,-0.22266 z m 34.5957,10.27539 2.2832,2.32227 c 1.25738,1.27748 2.45561,2.09972 2.66016,1.82812 0.20447,-0.27212 -0.82542,-1.31653 -2.28711,-2.32226 z m 4.66992,0.25195 c -0.0548,-0.004 -0.0958,0.0113 -0.12109,0.0449 -0.20334,0.28006 0.24582,1.04976 0.99609,1.70898 0.75035,0.65919 1.30372,1.835 1.23047,2.61328 -0.0733,0.77843 0.002,1.04868 0.16406,0.60156 0.16403,-0.4473 0.81594,-0.59779 1.44727,-0.33398 0.63137,0.26419 0.10874,-0.77583 -1.16016,-2.31055 -1.1102,-1.34283 -2.17046,-2.29447 -2.55469,-2.32422 z m 201.32422,1.07227 4.10156,0.75586 c 2.25608,0.41495 4.89802,0.49278 5.8711,0.17383 0.97311,-0.31937 2.39555,-0.2273 3.16015,0.20508 0.7646,0.43207 1.33765,0.4571 1.27344,0.0527 -0.0643,-0.40467 0.63654,-0.28909 1.55859,0.25781 0.92202,0.54701 1.80619,1.80128 1.96289,2.78906 0.29859,1.88274 -0.80287,3.44169 -1.8789,2.66016 -0.34621,-0.25134 -3.46785,-0.15202 -6.93946,0.21875 -3.47157,0.37115 -6.54167,0.66486 -6.82226,0.65235 -0.28044,-0.0151 -0.90971,-1.76587 -1.39844,-3.89454 z m -135.24023,6.18555 c 0.83377,-0.13229 7.58179,4.18374 14.99609,9.59179 7.4143,5.40813 17.76833,12.53679 23.00781,15.8418 5.23945,3.30501 10.80521,6.83295 12.36914,7.83789 1.56393,1.00494 3.11337,1.78477 3.44336,1.73242 0.32995,-0.0521 1.80715,0.61501 3.2832,1.48438 1.47602,0.86937 3.18496,1.87464 3.79883,2.23437 4.94105,2.89546 22.77056,10.7849 23.95117,10.59766 0.81721,-0.12964 1.59116,0.42209 1.71875,1.22656 0.12775,0.80447 1.38676,1.56593 2.79883,1.69141 1.41207,0.12548 2.61249,0.51071 2.66797,0.85937 0.0556,0.34848 -8.18,1.94776 -18.30078,3.55274 l -18.40039,2.91797 -6.53516,-5.54493 c -3.59437,-3.04966 -9.4204,-7.84414 -12.94726,-10.65429 -11.14016,-8.8763 -15.14431,-12.27635 -15.25196,-12.95508 -0.0574,-0.36208 -4.241,-3.57462 -9.29687,-7.13867 l -9.19336,-6.48047 -0.93164,-7.25586 c -0.51398,-3.99088 -1.33285,-7.71567 -1.81641,-8.27734 -0.51511,-0.59819 -0.24948,-1.1209 0.63868,-1.26172 z m 148.6875,3.94726 c 0.2396,-10e-4 0.45686,0.0175 0.63476,0.0586 v -0.002 c 0.71153,0.16479 -0.0434,0.49268 -1.67578,0.73242 -1.63279,0.23849 -2.21423,0.10407 -1.29297,-0.29882 0.46069,-0.20107 1.02441,-0.34946 1.5625,-0.42774 0.26907,-0.0391 0.53185,-0.0611 0.77149,-0.0625 z m -1.90235,19.82032 c 2.8444,0.0801 3.30176,0.40494 2.76367,1.95507 -0.69947,2.01502 -2.32071,2.53387 -7.79687,2.5 -2.21738,-0.0151 -3.63438,-0.57585 -3.78125,-1.50195 -0.18029,-1.1376 1.5051,-2.11421 4.10742,-2.61133 0.37191,-0.0711 0.76362,-0.13257 1.16992,-0.18359 1.08359,-0.13455 2.27985,-0.19335 3.53711,-0.1582 z m -225.18555,0.0664 c 0.41238,0.0508 0.89122,0.26577 1.41016,0.64258 1.57266,1.14142 1.78482,2.50243 2.07422,13.29687 0.32882,12.26416 3.70971,36.98237 5.69336,41.63282 0.71123,1.66768 0.70436,2.40986 -0.0195,2.10742 -2.77618,-1.16171 -7.5551,-24.18078 -8.17188,-39.36719 l -0.20508,-5.03125 -0.60546,6.17188 c -0.79503,8.09106 2.41459,28.54778 5.89062,37.54101 5.01887,12.98487 8.47659,27.41577 8.36328,34.9043 -0.13304,8.8007 -1.04516,11.99148 -3.5957,12.57617 -1.12271,0.25776 -3.43398,0.81189 -5.13477,1.23047 -1.70071,0.41862 -3.29581,0.61253 -3.54492,0.43164 -0.24907,-0.18104 -4.11129,-0.3256 -8.58398,-0.32031 l -8.13282,0.0117 3.32813,-8.7461 c 2.81805,-7.40719 3.54108,-11.47236 4.72656,-26.56836 0.76985,-9.80262 1.31151,-24.3963 1.20508,-32.42968 -0.17953,-13.54285 2.18783,-34.7462 4.19922,-37.6211 0.18104,-0.25852 0.42137,-0.41024 0.71289,-0.45703 l 0.002,-0.002 c 0.12147,-0.0195 0.25122,-0.0208 0.38867,-0.004 z m 222.42579,6.47266 c 0.18028,-0.0113 0.38161,0.0124 0.59765,0.0566 0.86442,0.18368 1.59895,0.50716 1.63281,0.7207 0.034,0.21354 -0.60509,0.49383 -1.41992,0.62305 -0.81479,0.12926 -1.54936,-0.19659 -1.63281,-0.72266 -0.0624,-0.39473 0.28153,-0.65165 0.82227,-0.67773 z m -4.92969,2.65039 c 0.22715,0.008 0.39682,0.17523 0.44531,0.48047 0.0862,0.54319 -0.24248,1.3341 -0.73242,1.75586 -0.48994,0.42183 -0.96273,0.32241 -1.04883,-0.22071 -0.0862,-0.54323 0.24455,-1.33215 0.73438,-1.7539 0.12245,-0.10545 0.24485,-0.17951 0.35937,-0.22071 0.0858,-0.0302 0.1666,-0.0444 0.24219,-0.041 z m -3.20508,8.35937 c 1.71674,0.14176 2.35108,1.7914 1.10742,3.50391 -0.70038,0.96446 -2.88908,2.19635 -4.86328,2.73633 l -3.58789,0.98242 2.52148,-3.47656 c 1.38766,-1.91074 3.1989,-3.58017 4.02344,-3.71094 0.28713,-0.0455 0.55358,-0.0554 0.79883,-0.0352 z m 27.51172,8.95508 c -0.21327,-0.009 -0.44352,0.008 -0.67969,0.0547 -0.94488,0.18709 -12.98984,1.80176 -26.76758,3.58789 -6.8889,0.8931 -13.14191,1.76035 -17.66797,2.43945 -4.52602,0.67903 -7.32649,1.16945 -7.30468,1.30664 0.0435,0.2744 0.46771,1.17027 0.9414,1.99024 0.57683,0.99893 1.18445,1.11964 1.84375,0.36914 0.92376,-1.05158 15.49455,-3.23202 21.62891,-3.23633 1.53127,-0.003 2.73572,-0.30977 2.67578,-0.6875 -0.1765,-1.11318 3.26179,-1.35424 4.24024,-0.29688 0.52086,0.56304 0.83931,0.55673 0.75585,-0.0176 -0.1697,-1.18972 16.51252,-4.01082 18.50391,-3.12891 0.80232,0.3549 1.29072,0.15099 1.1875,-0.5 -0.0964,-0.60729 0.31179,-0.89984 0.9082,-0.65039 0.59641,0.24945 1.0156,0.0109 0.92969,-0.53125 -0.0643,-0.40618 -0.55551,-0.67143 -1.19531,-0.69922 z m -55.86328,8.14649 c -1.10523,0.0145 -2.51045,0.13194 -4.25,0.35156 -3.67242,0.46363 -13.94048,1.72829 -22.81836,2.80859 -4.23122,0.51496 -7.55135,0.96415 -10.04297,1.36524 -4.15264,0.66852 -6.0038,1.20062 -5.92969,1.66796 0.14325,0.90339 6.65113,0.67163 9.47266,-0.33789 0.47864,-0.17121 1.32951,0.20942 1.89062,0.84571 0.56107,0.63647 0.95282,0.68526 0.86914,0.10937 -0.21732,-1.5117 13.11877,-2.80929 13.89063,-1.35156 l 0.002,-0.002 c 0.4653,0.88014 0.64988,0.84319 0.81641,-0.16016 0.11905,-0.7149 1.03147,-1.42799 2.02734,-1.58594 0.99591,-0.1576 2.12221,0.23159 2.50391,0.86719 0.38162,0.63557 0.59578,0.26072 0.47461,-0.83398 -0.18596,-1.68314 -0.0219,-1.78818 1.0625,-0.67579 0.96525,0.98971 1.35828,0.99038 1.58789,0.002 0.16781,-0.72272 0.69878,-1.37494 1.17969,-1.45117 0.48079,-0.0764 0.8272,0.43735 0.76953,1.14257 -0.0578,0.70526 0.0293,0.92009 0.1914,0.47657 0.49425,-1.34291 4.06409,-1.49531 4.35742,-0.18555 0.19427,0.86797 0.36701,0.80707 0.59571,-0.20898 0.27175,-1.20836 0.48636,-1.24115 1.38672,-0.21875 0.74419,0.84468 1.01255,0.84662 0.89062,0.004 -0.0971,-0.66569 0.53207,-1.05701 1.40821,-0.87109 1.05899,0.22488 1.33697,-0.093 0.83789,-0.95703 -0.324,-0.5611 -1.33179,-0.82497 -3.17383,-0.80078 z m -187.05274,1.57617 c -0.0221,-0.0102 -0.0414,-0.006 -0.0586,0.006 -0.11717,0.0896 -0.11495,0.7003 0.0332,1.7207 0.23849,1.63279 0.56783,2.38536 0.73242,1.67383 0.16517,-0.71176 -0.0306,-2.04753 -0.43359,-2.96875 -0.11339,-0.25909 -0.2048,-0.39991 -0.27344,-0.43164 z m 1.79688,14.20703 c -0.4591,0 -0.29444,4.5906 0.41797,11.15039 1.44888,13.33886 0.58996,20.15927 -3.90235,30.95508 -1.25283,3.01069 -1.73662,5.19385 -1.07422,4.84961 1.93463,-1.00479 5.90646,-11.80783 6.94141,-18.87891 1.01696,-6.94809 -0.53477,-26.00524 -2.28125,-28.01172 -0.0378,-0.0416 -0.071,-0.0641 -0.10156,-0.0645 z m -39.66992,8.43555 c -0.17235,-0.0956 -0.1172,0.944 0.17382,2.77734 0.38763,2.4443 0.73758,3.4139 0.7793,2.1543 0.0404,-1.25957 -0.2758,-3.26047 -0.70508,-4.44532 -0.10734,-0.29593 -0.19059,-0.45454 -0.24804,-0.48632 z m 244.68945,0.83593 c 1.48435,0.0953 5.1962,0.95464 12.5293,2.86719 10.42703,2.71948 11.64223,3.18867 11.86132,4.57031 0.27213,1.71617 -0.41697,1.80384 -3.96875,0.50977 -1.47756,-0.53836 -5.54146,-1.74504 -9.03125,-2.68164 -6.65189,-1.78526 -12.73932,-4.35978 -12.16796,-5.14649 0.0408,-0.0563 0.13019,-0.096 0.27343,-0.11523 0.1252,-0.0168 0.29186,-0.0175 0.50391,-0.004 z m 9.06445,6.38086 c 0.80699,-0.0207 2.41261,0.35862 4.97461,1.13086 2.42094,0.72983 4.8135,1.26334 5.31641,1.1836 0.50294,-0.0797 1.57349,0.43302 2.3789,1.14062 1.16837,1.02641 1.26227,1.62535 0.46875,2.96289 -0.54697,0.92202 -1.27578,1.71528 -1.61718,1.76563 -1.01322,0.14475 -10.54019,-5.44977 -11.63867,-6.83399 -0.60178,-0.75832 -0.69933,-1.19622 -0.18165,-1.3164 0.0831,-0.0193 0.18355,-0.0303 0.29883,-0.0332 z m -253.48437,1.96875 c -0.15225,0.003 -0.19729,0.38205 -0.11328,1.10352 0.12207,1.04772 0.4466,1.593 0.72265,1.21289 0.27591,-0.38018 0.17766,-1.23657 -0.2207,-1.9043 -0.16446,-0.27548 -0.29483,-0.4116 -0.38672,-0.41211 z m 24.5957,8.25 c -0.15185,0.004 -0.19728,0.38018 -0.11328,1.10156 0.12208,1.04773 0.4466,1.59503 0.72266,1.21485 0.2759,-0.38018 0.17765,-1.23653 -0.22071,-1.9043 -0.16446,-0.27548 -0.29479,-0.4116 -0.38672,-0.41211 z m 114.69531,10.82422 c 1.79804,-0.28535 10.63711,4.38413 12.88086,6.80469 3.28335,3.54213 9.73847,15.91296 12.90821,24.74023 1.50999,4.20514 3.0355,7.98391 3.39062,8.39649 0.35528,0.41257 0.29743,1.04917 -0.12891,1.41601 -0.42621,0.367 -2.40802,-2.13381 -4.40429,-5.55859 -9.26294,-15.89129 -10.72112,-18.51568 -11.00391,-19.81641 -0.1663,-0.76524 -0.84641,0.5135 -1.51172,2.8418 -1.24153,4.34479 -1.54544,4.22892 -3.72461,-1.42578 -0.60669,-1.5744 -2.81219,-5.19329 -4.90234,-8.04102 -3.80493,-5.18415 -5.26464,-9.07819 -3.50391,-9.35742 z m 13.75,21.69336 c 0.59199,-0.0658 1.7297,1.85596 3.72461,5.5625 2.16613,4.02471 5.1039,9.28961 6.52735,11.70117 2.54781,4.31645 2.56043,4.41077 0.88281,6.1543 -0.93725,0.97413 -1.96761,1.82833 -2.28906,1.89844 -0.32126,0.0688 -2.45546,-2.38835 -4.74219,-5.45899 -3.80731,-5.11272 -4.1828,-6.09866 -4.4668,-11.69531 -0.27704,-5.46293 -0.30758,-8.08769 0.36328,-8.16211 z m -2.55273,15.51172 2.76953,4.86523 c 2.38946,4.19244 2.62813,5.15914 1.72656,7.00782 -1.08616,2.22723 -7.86615,8.99662 -13.36914,13.34765 -3.49247,2.76148 -4.04135,3.01087 -4.22265,1.91602 -0.2812,-1.70275 -8.25886,-7.04391 -10.08789,-6.75391 -2.50549,0.39738 -5.62058,4.90219 -4.60547,6.66016 0.62725,1.08601 0.45967,1.14315 -0.9375,0.31445 -2.5341,-1.50338 -2.36185,-2.59346 1.60937,-10.17969 4.6026,-8.79235 11.41587,-13.97821 20.89844,-15.91015 z m 19.59375,7.55664 c 1.35632,0.11253 1.02191,2.818 -0.65039,4.08594 -0.96155,0.72895 -2.55759,1.44036 -3.54688,1.57812 -1.48229,0.20863 -1.37956,-0.25319 0.58594,-2.625 1.31153,-1.58256 2.8054,-2.94405 3.31836,-3.02539 0.10556,-0.0167 0.20255,-0.0212 0.29297,-0.0137 z m -33.10352,0.70898 c -0.0978,-10e-4 -0.20794,0.008 -0.32812,0.0273 -2.08362,0.33071 -7.29396,3.54068 -7.33985,4.92773 -0.0457,1.43131 0.39201,1.47542 2.92188,0.29492 3.18826,-1.48762 5.46734,-3.62267 5.25977,-4.93164 -0.0343,-0.21628 -0.22029,-0.31531 -0.51368,-0.31836 z m 1.36719,4.61719 c -0.59694,0.0427 -1.04802,0.37004 -1.59961,0.99805 -1.17528,1.33784 -0.98059,1.61486 1.63477,2.30859 5.80584,1.54005 7.53234,-0.30652 2.43164,-2.60156 -1.12778,-0.50744 -1.8699,-0.7479 -2.4668,-0.70508 z"
       style="fill:#000000;stroke-width:0.999999"
       id="path195" />
  </g>
</svg>
